  0
SECTION
  2
HEADER
  9
$ACADVER
  1
AC1024
  9
$ACADMAINTVER
 70
6
  9
$DWGCODEPAGE
  3
ANSI_1252
  9
$LASTSAVEDBY
  1
ezdxf
  9
$INSBASE
 10
0.0
 20
0.0
 30
0.0
  9
$EXTMIN
 10
1e+20
 20
1e+20
 30
1e+20
  9
$EXTMAX
 10
-1e+20
 20
-1e+20
 30
-1e+20
  9
$LIMMIN
 10
0.0
 20
0.0
  9
$LIMMAX
 10
420.0
 20
297.0
  9
$ORTHOMODE
 70
0
  9
$REGENMODE
 70
1
  9
$FILLMODE
 70
1
  9
$QTEXTMODE
 70
0
  9
$MIRRTEXT
 70
1
  9
$LTSCALE
 40
1.0
  9
$ATTMODE
 70
1
  9
$TEXTSIZE
 40
2.5
  9
$TRACEWID
 40
1.0
  9
$TEXTSTYLE
  7
Standard
  9
$CLAYER
  8
0
  9
$CELTYPE
  6
ByLayer
  9
$CECOLOR
 62
256
  9
$CELTSCALE
 40
1.0
  9
$DISPSILH
 70
0
  9
$DIMSCALE
 40
1.0
  9
$DIMASZ
 40
2.5
  9
$DIMEXO
 40
0.625
  9
$DIMDLI
 40
3.75
  9
$DIMRND
 40
0.0
  9
$DIMDLE
 40
0.0
  9
$DIMEXE
 40
1.25
  9
$DIMTP
 40
0.0
  9
$DIMTM
 40
0.0
  9
$DIMTXT
 40
2.5
  9
$DIMCEN
 40
2.5
  9
$DIMTSZ
 40
0.0
  9
$DIMTOL
 70
0
  9
$DIMLIM
 70
0
  9
$DIMTIH
 70
0
  9
$DIMTOH
 70
0
  9
$DIMSE1
 70
0
  9
$DIMSE2
 70
0
  9
$DIMTAD
 70
1
  9
$DIMZIN
 70
8
  9
$DIMBLK
  1

  9
$DIMASO
 70
1
  9
$DIMSHO
 70
1
  9
$DIMPOST
  1

  9
$DIMAPOST
  1

  9
$DIMALT
 70
0
  9
$DIMALTD
 70
3
  9
$DIMALTF
 40
0.03937007874
  9
$DIMLFAC
 40
1.0
  9
$DIMTOFL
 70
1
  9
$DIMTVP
 40
0.0
  9
$DIMTIX
 70
0
  9
$DIMSOXD
 70
0
  9
$DIMSAH
 70
0
  9
$DIMBLK1
  1

  9
$DIMBLK2
  1

  9
$DIMSTYLE
  2
ISO-25
  9
$DIMCLRD
 70
0
  9
$DIMCLRE
 70
0
  9
$DIMCLRT
 70
0
  9
$DIMTFAC
 40
1.0
  9
$DIMGAP
 40
0.625
  9
$DIMJUST
 70
0
  9
$DIMSD1
 70
0
  9
$DIMSD2
 70
0
  9
$DIMTOLJ
 70
0
  9
$DIMTZIN
 70
8
  9
$DIMALTZ
 70
0
  9
$DIMALTTZ
 70
0
  9
$DIMUPT
 70
0
  9
$DIMDEC
 70
2
  9
$DIMTDEC
 70
2
  9
$DIMALTU
 70
2
  9
$DIMALTTD
 70
3
  9
$DIMTXSTY
  7
Standard
  9
$DIMAUNIT
 70
0
  9
$DIMADEC
 70
0
  9
$DIMALTRND
 40
0.0
  9
$DIMAZIN
 70
0
  9
$DIMDSEP
 70
44
  9
$DIMATFIT
 70
3
  9
$DIMFRAC
 70
0
  9
$DIMLDRBLK
  1

  9
$DIMLUNIT
 70
2
  9
$DIMLWD
 70
-2
  9
$DIMLWE
 70
-2
  9
$DIMTMOVE
 70
0
  9
$DIMFXL
 40
1.0
  9
$DIMFXLON
 70
0
  9
$DIMJOGANG
 40
0.785398163397
  9
$DIMTFILL
 70
0
  9
$DIMTFILLCLR
 70
0
  9
$DIMARCSYM
 70
0
  9
$DIMLTYPE
  6

  9
$DIMLTEX1
  6

  9
$DIMLTEX2
  6

  9
$DIMTXTDIRECTION
 70
0
  9
$LUNITS
 70
2
  9
$LUPREC
 70
4
  9
$SKETCHINC
 40
1.0
  9
$FILLETRAD
 40
10.0
  9
$AUNITS
 70
0
  9
$AUPREC
 70
2
  9
$MENU
  1
.
  9
$ELEVATION
 40
0.0
  9
$PELEVATION
 40
0.0
  9
$THICKNESS
 40
0.0
  9
$LIMCHECK
 70
0
  9
$CHAMFERA
 40
0.0
  9
$CHAMFERB
 40
0.0
  9
$CHAMFERC
 40
0.0
  9
$CHAMFERD
 40
0.0
  9
$SKPOLY
 70
0
  9
$TDCREATE
 40
2460962.083298611
  9
$TDUCREATE
 40
2458532.153996898
  9
$TDUPDATE
 40
2460962.083298611
  9
$TDUUPDATE
 40
2458532.1544311
  9
$TDINDWG
 40
0.0
  9
$TDUSRTIMER
 40
0.0
  9
$USRTIMER
 70
1
  9
$ANGBASE
 50
0.0
  9
$ANGDIR
 70
0
  9
$PDMODE
 70
0
  9
$PDSIZE
 40
0.0
  9
$PLINEWID
 40
0.0
  9
$SPLFRAME
 70
0
  9
$SPLINETYPE
 70
6
  9
$SPLINESEGS
 70
8
  9
$HANDSEED
  5
BD
  9
$SURFTAB1
 70
6
  9
$SURFTAB2
 70
6
  9
$SURFTYPE
 70
6
  9
$SURFU
 70
6
  9
$SURFV
 70
6
  9
$UCSBASE
  2

  9
$UCSNAME
  2

  9
$UCSORG
 10
0.0
 20
0.0
 30
0.0
  9
$UCSXDIR
 10
1.0
 20
0.0
 30
0.0
  9
$UCSYDIR
 10
0.0
 20
1.0
 30
0.0
  9
$UCSORTHOREF
  2

  9
$UCSORTHOVIEW
 70
0
  9
$UCSORGTOP
 10
0.0
 20
0.0
 30
0.0
  9
$UCSORGBOTTOM
 10
0.0
 20
0.0
 30
0.0
  9
$UCSORGLEFT
 10
0.0
 20
0.0
 30
0.0
  9
$UCSORGRIGHT
 10
0.0
 20
0.0
 30
0.0
  9
$UCSORGFRONT
 10
0.0
 20
0.0
 30
0.0
  9
$UCSORGBACK
 10
0.0
 20
0.0
 30
0.0
  9
$PUCSBASE
  2

  9
$PUCSNAME
  2

  9
$PUCSORG
 10
0.0
 20
0.0
 30
0.0
  9
$PUCSXDIR
 10
1.0
 20
0.0
 30
0.0
  9
$PUCSYDIR
 10
0.0
 20
1.0
 30
0.0
  9
$PUCSORTHOREF
  2

  9
$PUCSORTHOVIEW
 70
0
  9
$PUCSORGTOP
 10
0.0
 20
0.0
 30
0.0
  9
$PUCSORGBOTTOM
 10
0.0
 20
0.0
 30
0.0
  9
$PUCSORGLEFT
 10
0.0
 20
0.0
 30
0.0
  9
$PUCSORGRIGHT
 10
0.0
 20
0.0
 30
0.0
  9
$PUCSORGFRONT
 10
0.0
 20
0.0
 30
0.0
  9
$PUCSORGBACK
 10
0.0
 20
0.0
 30
0.0
  9
$USERI1
 70
0
  9
$USERI2
 70
0
  9
$USERI3
 70
0
  9
$USERI4
 70
0
  9
$USERI5
 70
0
  9
$USERR1
 40
0.0
  9
$USERR2
 40
0.0
  9
$USERR3
 40
0.0
  9
$USERR4
 40
0.0
  9
$USERR5
 40
0.0
  9
$WORLDVIEW
 70
1
  9
$SHADEDGE
 70
3
  9
$SHADEDIF
 70
70
  9
$TILEMODE
 70
1
  9
$MAXACTVP
 70
64
  9
$PINSBASE
 10
0.0
 20
0.0
 30
0.0
  9
$PLIMCHECK
 70
0
  9
$PEXTMIN
 10
1e+20
 20
1e+20
 30
1e+20
  9
$PEXTMAX
 10
-1e+20
 20
-1e+20
 30
-1e+20
  9
$PLIMMIN
 10
0.0
 20
0.0
  9
$PLIMMAX
 10
420.0
 20
297.0
  9
$UNITMODE
 70
0
  9
$VISRETAIN
 70
1
  9
$PLINEGEN
 70
0
  9
$PSLTSCALE
 70
1
  9
$TREEDEPTH
 70
3020
  9
$CMLSTYLE
  2
Standard
  9
$CMLJUST
 70
0
  9
$CMLSCALE
 40
20.0
  9
$PROXYGRAPHICS
 70
1
  9
$MEASUREMENT
 70
1
  9
$CELWEIGHT
370
-1
  9
$ENDCAPS
280
0
  9
$JOINSTYLE
280
0
  9
$LWDISPLAY
290
0
  9
$INSUNITS
 70
6
  9
$HYPERLINKBASE
  1

  9
$STYLESHEET
  1

  9
$XEDIT
290
1
  9
$CEPSNTYPE
380
0
  9
$PSTYLEMODE
290
1
  9
$FINGERPRINTGUID
  2
{885CF376-A0A1-47A9-85D1-9A112919669E}
  9
$VERSIONGUID
  2
{DC2CED88-6794-45B6-89A4-CA7A4EEEBC4C}
  9
$EXTNAMES
290
1
  9
$PSVPSCALE
 40
0.0
  9
$OLESTARTUP
290
0
  9
$SORTENTS
280
127
  9
$INDEXCTL
280
0
  9
$HIDETEXT
280
1
  9
$XCLIPFRAME
280
1
  9
$HALOGAP
280
0
  9
$OBSCOLOR
 70
257
  9
$OBSLTYPE
280
0
  9
$INTERSECTIONDISPLAY
280
0
  9
$INTERSECTIONCOLOR
 70
257
  9
$DIMASSOC
280
2
  9
$PROJECTNAME
  1

  9
$CAMERADISPLAY
290
0
  9
$LENSLENGTH
 40
50.0
  9
$CAMERAHEIGHT
 40
0.0
  9
$STEPSPERSEC
 40
24.0
  9
$STEPSIZE
 40
100.0
  9
$3DDWFPREC
 40
2.0
  9
$PSOLWIDTH
 40
0.005
  9
$PSOLHEIGHT
 40
0.08
  9
$LOFTANG1
 40
1.570796326795
  9
$LOFTANG2
 40
1.570796326795
  9
$LOFTMAG1
 40
0.0
  9
$LOFTMAG2
 40
0.0
  9
$LOFTPARAM
 70
7
  9
$LOFTNORMALS
280
1
  9
$LATITUDE
 40
37.795
  9
$LONGITUDE
 40
-122.394
  9
$NORTHDIRECTION
 40
0.0
  9
$TIMEZONE
 70
-8000
  9
$LIGHTGLYPHDISPLAY
280
1
  9
$TILEMODELIGHTSYNCH
280
1
  9
$CMATERIAL
347
20
  9
$SOLIDHIST
280
0
  9
$SHOWHIST
280
1
  9
$DWFFRAME
280
2
  9
$DGNFRAME
280
2
  9
$REALWORLDSCALE
290
1
  9
$INTERFERECOLOR
 62
256
  9
$CSHADOW
280
0
  9
$SHADOWPLANELOCATION
 40
0.0
  0
ENDSEC
  0
SECTION
  2
CLASSES
  0
CLASS
  1
ACDBDICTIONARYWDFLT
  2
AcDbDictionaryWithDefault
  3
ObjectDBX Classes
 90
0
 91
0
280
0
281
0
  0
CLASS
  1
SUN
  2
AcDbSun
  3
SCENEOE
 90
1153
 91
0
280
0
281
0
  0
CLASS
  1
VISUALSTYLE
  2
AcDbVisualStyle
  3
ObjectDBX Classes
 90
4095
 91
0
280
0
281
0
  0
CLASS
  1
MATERIAL
  2
AcDbMaterial
  3
ObjectDBX Classes
 90
1153
 91
0
280
0
281
0
  0
CLASS
  1
SCALE
  2
AcDbScale
  3
ObjectDBX Classes
 90
1153
 91
0
280
0
281
0
  0
CLASS
  1
TABLESTYLE
  2
AcDbTableStyle
  3
ObjectDBX Classes
 90
4095
 91
0
280
0
281
0
  0
CLASS
  1
MLEADERSTYLE
  2
AcDbMLeaderStyle
  3
ACDB_MLEADERSTYLE_CLASS
 90
4095
 91
0
280
0
281
0
  0
CLASS
  1
DICTIONARYVAR
  2
AcDbDictionaryVar
  3
ObjectDBX Classes
 90
0
 91
0
280
0
281
0
  0
CLASS
  1
CELLSTYLEMAP
  2
AcDbCellStyleMap
  3
ObjectDBX Classes
 90
1152
 91
0
280
0
281
0
  0
CLASS
  1
MENTALRAYRENDERSETTINGS
  2
AcDbMentalRayRenderSettings
  3
SCENEOE
 90
1024
 91
0
280
0
281
0
  0
CLASS
  1
ACDBDETAILVIEWSTYLE
  2
AcDbDetailViewStyle
  3
ObjectDBX Classes
 90
1025
 91
0
280
0
281
0
  0
CLASS
  1
ACDBSECTIONVIEWSTYLE
  2
AcDbSectionViewStyle
  3
ObjectDBX Classes
 90
1025
 91
0
280
0
281
0
  0
CLASS
  1
RASTERVARIABLES
  2
AcDbRasterVariables
  3
ISM
 90
0
 91
0
280
0
281
0
  0
CLASS
  1
LAYOUT
  2
AcDbLayout
  3
ObjectDBX Classes
 90
0
 91
0
280
0
281
0
  0
CLASS
  1
ACDBPLACEHOLDER
  2
AcDbPlaceHolder
  3
ObjectDBX Classes
 90
0
 91
0
280
0
281
0
  0
ENDSEC
  0
SECTION
  2
TABLES
  0
TABLE
  2
VPORT
  5
8
330
0
100
AcDbSymbolTable
 70
1
  0
VPORT
  5
23
330
8
100
AcDbSymbolTableRecord
100
AcDbViewportTableRecord
  2
*Active
 70
0
 10
0.0
 20
0.0
 11
1.0
 21
1.0
 12
0.0
 22
0.0
 13
0.0
 23
0.0
 14
0.5
 24
0.5
 15
0.5
 25
0.5
 16
0.0
 26
0.0
 36
1.0
 17
0.0
 27
0.0
 37
0.0
 40
1000.0
 41
1.34
 42
50.0
 43
0.0
 44
0.0
 50
0.0
 51
0.0
 71
0
 72
1000
 73
1
 74
3
 75
0
 76
0
 77
0
 78
0
281
0
 65
0
146
0.0
  0
ENDTAB
  0
TABLE
  2
LTYPE
  5
2
330
0
100
AcDbSymbolTable
 70
3
  0
LTYPE
  5
24
330
2
100
AcDbSymbolTableRecord
100
AcDbLinetypeTableRecord
  2
ByBlock
 70
0
  3

 72
65
 73
0
 40
0.0
  0
LTYPE
  5
25
330
2
100
AcDbSymbolTableRecord
100
AcDbLinetypeTableRecord
  2
ByLayer
 70
0
  3

 72
65
 73
0
 40
0.0
  0
LTYPE
  5
26
330
2
100
AcDbSymbolTableRecord
100
AcDbLinetypeTableRecord
  2
Continuous
 70
0
  3

 72
65
 73
0
 40
0.0
  0
ENDTAB
  0
TABLE
  2
LAYER
  5
1
330
0
100
AcDbSymbolTable
 70
14
  0
LAYER
  5
27
330
1
100
AcDbSymbolTableRecord
100
AcDbLayerTableRecord
  2
0
 70
0
 62
7
  6
Continuous
370
-3
390
13
347
21
  0
LAYER
  5
28
330
1
100
AcDbSymbolTableRecord
100
AcDbLayerTableRecord
  2
Defpoints
 70
0
 62
7
  6
Continuous
290
0
370
-3
390
13
347
21
  0
LAYER
  5
2F
330
1
100
AcDbSymbolTableRecord
100
AcDbLayerTableRecord
  2
图框
 70
0
 62
7
  6
Continuous
370
-3
390
13
347
21
  0
LAYER
  5
30
330
1
100
AcDbSymbolTableRecord
100
AcDbLayerTableRecord
  2
图框线
 70
0
 62
7
  6
Continuous
370
-3
390
13
347
21
  0
LAYER
  5
31
330
1
100
AcDbSymbolTableRecord
100
AcDbLayerTableRecord
  2
指北针
 70
0
 62
7
  6
Continuous
370
-3
390
13
347
21
  0
LAYER
  5
32
330
1
100
AcDbSymbolTableRecord
100
AcDbLayerTableRecord
  2
中心线
 70
0
 62
7
  6
Continuous
370
-3
390
13
347
21
  0
LAYER
  5
33
330
1
100
AcDbSymbolTableRecord
100
AcDbLayerTableRecord
  2
左车道
 70
0
 62
7
  6
Continuous
370
-3
390
13
347
21
  0
LAYER
  5
34
330
1
100
AcDbSymbolTableRecord
100
AcDbLayerTableRecord
  2
右车道
 70
0
 62
7
  6
Continuous
370
-3
390
13
347
21
  0
LAYER
  5
35
330
1
100
AcDbSymbolTableRecord
100
AcDbLayerTableRecord
  2
左路缘
 70
0
 62
7
  6
Continuous
370
-3
390
13
347
21
  0
LAYER
  5
36
330
1
100
AcDbSymbolTableRecord
100
AcDbLayerTableRecord
  2
右路缘
 70
0
 62
7
  6
Continuous
370
-3
390
13
347
21
  0
LAYER
  5
37
330
1
100
AcDbSymbolTableRecord
100
AcDbLayerTableRecord
  2
路线
 70
0
 62
7
  6
Continuous
370
-3
390
13
347
21
  0
LAYER
  5
38
330
1
100
AcDbSymbolTableRecord
100
AcDbLayerTableRecord
  2
关键点
 70
0
 62
7
  6
Continuous
370
-3
390
13
347
21
  0
LAYER
  5
39
330
1
100
AcDbSymbolTableRecord
100
AcDbLayerTableRecord
  2
桩号
 70
0
 62
7
  6
Continuous
370
-3
390
13
347
21
  0
LAYER
  5
3A
330
1
100
AcDbSymbolTableRecord
100
AcDbLayerTableRecord
  2
曲线要素表
 70
0
 62
7
  6
Continuous
370
-3
390
13
347
21
  0
ENDTAB
  0
TABLE
  2
STYLE
  5
5
330
0
100
AcDbSymbolTable
 70
1
  0
STYLE
  5
29
330
5
100
AcDbSymbolTableRecord
100
AcDbTextStyleTableRecord
  2
Standard
 70
0
 40
0.0
 41
1.0
 50
0.0
 71
0
 42
2.5
  3
txt
  4

  0
ENDTAB
  0
TABLE
  2
VIEW
  5
7
330
0
100
AcDbSymbolTable
 70
0
  0
ENDTAB
  0
TABLE
  2
UCS
  5
6
330
0
100
AcDbSymbolTable
 70
0
  0
ENDTAB
  0
TABLE
  2
APPID
  5
3
330
0
100
AcDbSymbolTable
 70
3
  0
APPID
  5
2A
330
3
100
AcDbSymbolTableRecord
100
AcDbRegAppTableRecord
  2
ACAD
 70
0
  0
APPID
  5
BA
330
3
100
AcDbSymbolTableRecord
100
AcDbRegAppTableRecord
  2
HATCHBACKGROUNDCOLOR
 70
0
  0
APPID
  5
BB
330
3
100
AcDbSymbolTableRecord
100
AcDbRegAppTableRecord
  2
EZDXF
 70
0
  0
ENDTAB
  0
TABLE
  2
DIMSTYLE
  5
4
330
0
100
AcDbSymbolTable
 70
1
100
AcDbDimStyleTable
  0
DIMSTYLE
105
2B
330
4
100
AcDbSymbolTableRecord
100
AcDbDimStyleTableRecord
  2
Standard
 70
0
 40
1.0
 41
2.5
 42
0.625
 43
3.75
 44
1.25
 45
0.0
 46
0.0
 47
0.0
 48
0.0
 49
2.5
140
2.5
141
2.5
142
0.0
143
0.03937007874
144
1.0
145
0.0
146
1.0
147
0.625
148
0.0
 69
0
 70
0
 71
0
 72
0
 73
0
 74
0
 75
0
 76
0
 77
1
 78
8
 79
3
170
0
171
3
172
1
173
0
174
0
175
0
176
0
177
0
178
0
179
2
271
2
272
2
273
2
274
3
275
0
276
0
277
2
278
44
279
0
280
0
281
0
282
0
283
0
284
8
285
0
286
0
288
0
289
3
290
0
371
-2
372
-2
  0
ENDTAB
  0
TABLE
  2
BLOCK_RECORD
  5
9
330
0
100
AcDbSymbolTable
 70
2
  0
BLOCK_RECORD
  5
17
330
9
100
AcDbSymbolTableRecord
100
AcDbBlockTableRecord
  2
*Model_Space
340
1A
 70
0
280
1
281
0
  0
BLOCK_RECORD
  5
1B
330
9
100
AcDbSymbolTableRecord
100
AcDbBlockTableRecord
  2
*Paper_Space
340
1E
 70
0
280
1
281
0
  0
ENDTAB
  0
ENDSEC
  0
SECTION
  2
BLOCKS
  0
BLOCK
  5
18
330
17
100
AcDbEntity
  8
0
100
AcDbBlockBegin
  2
*Model_Space
 70
0
 10
0.0
 20
0.0
 30
0.0
  3
*Model_Space
  1

  0
ENDBLK
  5
19
330
17
100
AcDbEntity
  8
0
100
AcDbBlockEnd
  0
BLOCK
  5
1C
330
1B
100
AcDbEntity
  8
0
100
AcDbBlockBegin
  2
*Paper_Space
 70
0
 10
0.0
 20
0.0
 30
0.0
  3
*Paper_Space
  1

  0
ENDBLK
  5
1D
330
1B
100
AcDbEntity
  8
0
100
AcDbBlockEnd
  0
ENDSEC
  0
SECTION
  2
ENTITIES
  0
LWPOLYLINE
  5
3B
330
17
100
AcDbEntity
  8
图框
100
AcDbPolyline
 90
4
 70
1
 10
84614.62755302904
 20
12260.410697084728
 10
84965.32226551378
 20
12260.410697084728
 10
84965.32226551378
 20
11730.843626686947
 10
84614.62755302904
 20
11730.843626686947
  0
LWPOLYLINE
  5
3C
330
17
100
AcDbEntity
  8
图框线
100
AcDbPolyline
 90
4
 70
1
 10
84634.62755302904
 20
12240.410697084728
 10
84945.32226551378
 20
12240.410697084728
 10
84945.32226551378
 20
11750.843626686947
 10
84634.62755302904
 20
11750.843626686947
  0
CIRCLE
  5
3D
330
17
100
AcDbEntity
  8
指北针
100
AcDbCircle
 10
84937.5199943179
 20
12232.608425888844
 30
0.0
 40
18.534847463922343
  0
LINE
  5
3E
330
17
100
AcDbEntity
  8
指北针
100
AcDbLine
 10
84937.5199943179
 20
12214.073578424921
 30
0.0
 11
84937.5199943179
 21
12251.143273352767
 31
0.0
  0
LINE
  5
3F
330
17
100
AcDbEntity
  8
指北针
100
AcDbLine
 10
84928.25257058594
 20
12232.608425888844
 30
0.0
 11
84946.78741804986
 21
12232.608425888844
 31
0.0
  0
TEXT
  5
40
330
17
100
AcDbEntity
  8
指北针
100
AcDbText
 10
84937.5199943179
 20
12243.729334367197
 30
0.0
 40
11.120908478353405
  1
N
 72
1
 11
84937.5199943179
 21
12243.729334367197
 31
0.0
100
AcDbText
  0
LWPOLYLINE
  5
41
330
17
100
AcDbEntity
  8
中心线
100
AcDbPolyline
 90
23
 70
0
 10
84684.10087695369
 20
12204.416509873245
 10
84690.89037178316
 20
12182.42850900929
 10
84698.40190536552
 20
12158.583745980291
 10
84706.19905311913
 20
12134.831008769504
 10
84714.42836000149
 20
12111.2247689327
 10
84715.10547134436
 20
12109.356042077887
 10
84723.21449201941
 20
12087.820254053615
 10
84732.58291840376
 20
12064.64267791469
 10
84742.52779635444
 20
12041.706530654503
 10
84753.04291064643
 20
12019.026146618487
 10
84764.1216896756
 20
11996.615700308394
 10
84769.05622438437
 20
11987.06746542052
 10
84775.75720956568
 20
11974.489197523668
 10
84787.94219849548
 20
11952.660466608304
 10
84800.66904124357
 20
11931.143149808568
 10
84813.92978394752
 20
11909.95069474704
 10
84827.71613907475
 20
11889.09634601829
 10
84838.83369083011
 20
11873.066215818231
 10
84842.01927396607
 20
11868.592960810589
 10
84856.79294150128
 20
11848.425741370373
 10
84871.91494639666
 20
11828.51809586809
 10
84887.2576138337
 20
11808.779828800405
 10
84899.30307918461
 20
11793.434349237756
  0
LWPOLYLINE
  5
42
330
17
100
AcDbEntity
  8
左车道
100
AcDbPolyline
 90
23
 70
0
 10
84703.21579614352
 20
12210.300374620712
 10
84709.98964439891
 20
12188.362966486517
 10
84717.44773928938
 20
12164.687532521866
 10
84725.1503725321
 20
12141.222213077583
 10
84733.2387276153
 20
12118.01962509257
 10
84733.90243119045
 20
12116.18790130833
 10
84741.849271452
 20
12095.082829044544
 10
84751.03032930866
 20
12072.368804428399
 10
84760.77630970032
 20
12049.891380113415
 10
84771.08112170648
 20
12027.66460375812
 10
84781.93832515506
 20
12005.702366374227
 10
84786.77416916966
 20
11996.345096184112
 10
84793.34113464734
 20
11984.018393645198
 10
84805.28242379855
 20
11962.62623734814
 10
84817.75472969167
 20
11941.539266884398
 10
84830.75025754154
 20
11920.770660924101
 10
84844.26088556623
 20
11900.333399169927
 10
84855.15608628649
 20
11884.62387157387
 10
84858.27970950113
 20
11880.237626379432
 10
84872.81123640254
 20
11860.401309350887
 10
84887.76094331869
 20
11840.720734170809
 10
84903.00545777543
 20
11821.108876257
 10
84915.02743386355
 20
11805.793340698672
  0
LWPOLYLINE
  5
43
330
17
100
AcDbEntity
  8
右车道
100
AcDbPolyline
 90
23
 70
0
 10
84664.98595776386
 20
12198.532645125779
 10
84671.7910991674
 20
12176.494051532065
 10
84679.35607144167
 20
12152.479959438717
 10
84687.24773370616
 20
12128.439804461426
 10
84695.61799238768
 20
12104.42991277283
 10
84696.30851149827
 20
12102.524182847443
 10
84704.57971258683
 20
12080.557679062686
 10
84714.13550749885
 20
12056.91655140098
 10
84724.27928300855
 20
12033.52168119559
 10
84735.00469958638
 20
12010.387689478855
 10
84746.30505419613
 20
11987.52903424256
 10
84751.33827959909
 20
11977.789834656927
 10
84758.17328448402
 20
11964.960001402138
 10
84770.60197319242
 20
11942.694695868468
 10
84783.58335279547
 20
11920.747032732737
 10
84797.1093103535
 20
11899.130728569979
 10
84811.17139258327
 20
11877.859292866653
 10
84822.51129537374
 20
11861.508560062593
 10
84825.75883843101
 20
11856.948295241746
 10
84840.77464660001
 20
11836.450173389858
 10
84856.06894947463
 20
11816.315457565372
 10
84871.50976989197
 20
11796.45078134381
 10
84883.57872450567
 20
11781.07535777684
  0
LWPOLYLINE
  5
44
330
17
100
AcDbEntity
  8
左路缘
100
AcDbPolyline
 90
23
 70
0
 10
84703.57420087833
 20
12210.410697084728
 10
84710.34775576046
 20
12188.474237564214
 10
84717.80484867544
 20
12164.801978519521
 10
84725.50570977108
 20
12141.34204815836
 10
84733.59142200806
 20
12118.147028645566
 10
84734.25487418757
 20
12116.315998668902
 10
84742.19867356635
 20
12095.219002325624
 10
84751.37621826313
 20
12072.513669300532
 10
84761.11846932555
 20
12050.04484604077
 10
84771.41933816385
 20
12027.826574829487
 10
84782.2723870703
 20
12005.872741362962
 10
84787.10638063439
 20
11996.51905176093
 10
84793.67083324262
 20
11984.197066072476
 10
84805.60755302299
 20
11962.813095549513
 10
84818.07508635007
 20
11941.73419407957
 10
84831.06564142143
 20
11920.97353528992
 10
84844.57109956293
 20
11900.54409391652
 10
84855.46213120129
 20
11884.840577619287
 10
84858.58459266742
 20
11880.455963858847
 10
84873.11157943195
 20
11860.625851250523
 10
84888.05805576098
 20
11840.949533638985
 10
84903.30072984935
 20
11821.340045896812
 10
84915.32226551378
 20
11806.025071788565
  0
LWPOLYLINE
  5
45
330
17
100
AcDbEntity
  8
右路缘
100
AcDbPolyline
 90
23
 70
0
 10
84664.62755302904
 20
12198.422322661763
 10
84671.43298780585
 20
12176.382780454367
 10
84678.9989620556
 20
12152.365513441062
 10
84686.89239646717
 20
12128.31996938065
 10
84695.26529799492
 20
12104.302509219833
 10
84695.95606850115
 20
12102.396085486871
 10
84704.23031047247
 20
12080.421505781605
 10
84713.78961854438
 20
12056.771686528848
 10
84723.93712338332
 20
12033.368215268236
 10
84734.66648312901
 20
12010.225718407488
 10
84745.97099228088
 20
11987.358659253825
 10
84751.00606813436
 20
11977.61587908011
 10
84757.84358588874
 20
11964.78132897486
 10
84770.27684396798
 20
11942.507837667095
 10
84783.26299613707
 20
11920.552105537565
 10
84796.7939264736
 20
11898.92785420416
 10
84810.86117858657
 20
11877.64859812006
 10
84822.20525045894
 20
11861.291854017176
 10
84825.45395526472
 20
11856.72995776233
 10
84840.4743035706
 20
11836.225631490222
 10
84855.77183703234
 20
11816.086658097196
 10
84871.21449781806
 20
11796.219611703998
 10
84883.28389285544
 20
11780.843626686947
  0
LWPOLYLINE
  5
46
330
17
100
AcDbEntity
  8
路线
100
AcDbPolyline
 90
5
 70
0
 10
84684.10087695369
 20
12204.416509873245
 10
84715.10547134436
 20
12109.356042077887
 10
84769.05622438437
 20
11987.06746542052
 10
84838.83369083011
 20
11873.066215818231
 10
84899.30307918461
 20
11793.434349237756
  0
CIRCLE
  5
47
330
17
100
AcDbEntity
  8
关键点
100
AcDbCircle
 10
84684.10087695369
 20
12204.416509873245
 30
0.0
 40
1.2
  0
LINE
  5
48
330
17
100
AcDbEntity
  8
关键点
100
AcDbLine
 10
84684.10087695369
 20
12204.416509873245
 30
0.0
 11
84682.33571752945
 21
12198.682034116297
 31
0.0
  0
TEXT
  5
49
330
17
100
AcDbEntity
  8
关键点
100
AcDbText
 10
84682.33571752945
 20
12198.682034116297
 30
0.0
 40
3.5
  1
ZH
 11
84682.33571752945
 21
12198.682034116297
 31
0.0
100
AcDbText
 73
1
  0
TEXT
  5
4A
330
17
100
AcDbEntity
  8
关键点
100
AcDbText
 10
84682.33571752945
 20
12194.682034116297
 30
0.0
 40
3.5
  1
K1+226.988
 11
84682.33571752945
 21
12194.682034116297
 31
0.0
100
AcDbText
 73
3
  0
CIRCLE
  5
4B
330
17
100
AcDbEntity
  8
关键点
100
AcDbCircle
 10
84715.10547134436
 20
12109.356042077887
 30
0.0
 40
1.2
  0
LINE
  5
4C
330
17
100
AcDbEntity
  8
关键点
100
AcDbLine
 10
84715.10547134436
 20
12109.356042077887
 30
0.0
 11
84713.05591357523
 21
12103.71695412406
 31
0.0
  0
TEXT
  5
4D
330
17
100
AcDbEntity
  8
关键点
100
AcDbText
 10
84713.05591357523
 20
12103.71695412406
 30
0.0
 40
3.5
  1
HY
 11
84713.05591357523
 21
12103.71695412406
 31
0.0
100
AcDbText
 73
1
  0
TEXT
  5
4E
330
17
100
AcDbEntity
  8
关键点
100
AcDbText
 10
84713.05591357523
 20
12099.71695412406
 30
0.0
 40
3.5
  1
K1+326.988
 11
84713.05591357523
 21
12099.71695412406
 31
0.0
100
AcDbText
 73
3
  0
CIRCLE
  5
4F
330
17
100
AcDbEntity
  8
关键点
100
AcDbCircle
 10
84769.05622438437
 20
11987.06746542052
 30
0.0
 40
1.2
  0
LINE
  5
50
330
17
100
AcDbEntity
  8
关键点
100
AcDbLine
 10
84769.05622438437
 20
11987.06746542052
 30
0.0
 11
84766.2729351553
 21
11981.752081984934
 31
0.0
  0
TEXT
  5
51
330
17
100
AcDbEntity
  8
关键点
100
AcDbText
 10
84766.2729351553
 20
11981.752081984934
 30
0.0
 40
3.5
  1
QZ
 11
84766.2729351553
 21
11981.752081984934
 31
0.0
100
AcDbText
 73
1
  0
TEXT
  5
52
330
17
100
AcDbEntity
  8
关键点
100
AcDbText
 10
84766.2729351553
 20
11977.752081984934
 30
0.0
 40
3.5
  1
K1+460.748
 11
84766.2729351553
 21
11977.752081984934
 31
0.0
100
AcDbText
 73
3
  0
CIRCLE
  5
53
330
17
100
AcDbEntity
  8
关键点
100
AcDbCircle
 10
84838.83369083011
 20
11873.066215818231
 30
0.0
 40
1.2
  0
LINE
  5
54
330
17
100
AcDbEntity
  8
关键点
100
AcDbLine
 10
84838.83369083011
 20
11873.066215818231
 30
0.0
 11
84835.36639410342
 21
11868.16949718132
 31
0.0
  0
TEXT
  5
55
330
17
100
AcDbEntity
  8
关键点
100
AcDbText
 10
84835.36639410342
 20
11868.16949718132
 30
0.0
 40
3.5
  1
YH
 11
84835.36639410342
 21
11868.16949718132
 31
0.0
100
AcDbText
 73
1
  0
TEXT
  5
56
330
17
100
AcDbEntity
  8
关键点
100
AcDbText
 10
84835.36639410342
 20
11864.16949718132
 30
0.0
 40
3.5
  1
K1+594.508
 11
84835.36639410342
 21
11864.16949718132
 31
0.0
100
AcDbText
 73
3
  0
CIRCLE
  5
57
330
17
100
AcDbEntity
  8
关键点
100
AcDbCircle
 10
84899.30307918461
 20
11793.434349237756
 30
0.0
 40
1.2
  0
LINE
  5
58
330
17
100
AcDbEntity
  8
关键点
100
AcDbLine
 10
84899.30307918461
 20
11793.434349237756
 30
0.0
 11
84895.59538174633
 21
11788.717042834074
 31
0.0
  0
TEXT
  5
59
330
17
100
AcDbEntity
  8
关键点
100
AcDbText
 10
84895.59538174633
 20
11788.717042834074
 30
0.0
 40
3.5
  1
HZ
 11
84895.59538174633
 21
11788.717042834074
 31
0.0
100
AcDbText
 73
1
  0
TEXT
  5
5A
330
17
100
AcDbEntity
  8
关键点
100
AcDbText
 10
84895.59538174633
 20
11784.717042834074
 30
0.0
 40
3.5
  1
K1+694.508
 11
84895.59538174633
 21
11784.717042834074
 31
0.0
100
AcDbText
 73
3
  0
LINE
  5
5B
330
17
100
AcDbEntity
  8
桩号
100
AcDbLine
 10
84684.68926342843
 20
12206.328001792228
 30
0.0
 11
84683.51249047894
 21
12202.505017954261
 31
0.0
  0
TEXT
  5
5C
330
17
100
AcDbEntity
  8
桩号
100
AcDbText
 10
84682.04152429207
 20
12197.726288156806
 30
0.0
 40
3.0
  1
K1+226.988
 72
1
 11
84682.04152429207
 21
12197.726288156806
 31
0.0
100
AcDbText
  0
LINE
  5
5D
330
17
100
AcDbEntity
  8
桩号
100
AcDbLine
 10
84691.48381753088
 20
12184.338436270866
 30
0.0
 11
84690.29692603543
 21
12180.518581747716
 31
0.0
  0
TEXT
  5
5E
330
17
100
AcDbEntity
  8
桩号
100
AcDbText
 10
84688.81331166613
 20
12175.743763593777
 30
0.0
 40
3.0
  1
K1+250.000
 72
1
 11
84688.81331166613
 21
12175.743763593777
 31
0.0
100
AcDbText
  0
LINE
  5
5F
330
17
100
AcDbEntity
  8
桩号
100
AcDbLine
 10
84699.01228401969
 20
12160.488329372676
 30
0.0
 11
84697.79152671136
 21
12156.679162587907
 31
0.0
  0
TEXT
  5
60
330
17
100
AcDbEntity
  8
桩号
100
AcDbText
 10
84696.26558007597
 20
12151.917704106943
 30
0.0
 40
3.0
  1
K1+275.000
 72
1
 11
84696.26558007597
 21
12151.917704106943
 31
0.0
100
AcDbText
  0
LINE
  5
61
330
17
100
AcDbEntity
  8
桩号
100
AcDbLine
 10
84706.83817354993
 20
12136.726140710802
 30
0.0
 11
84705.55993268832
 21
12132.935876828207
 31
0.0
  0
TEXT
  5
62
330
17
100
AcDbEntity
  8
桩号
100
AcDbText
 10
84703.9621316113
 20
12128.198046974965
 30
0.0
 40
3.0
  1
K1+300.000
 72
1
 11
84703.9621316113
 21
12128.198046974965
 31
0.0
100
AcDbText
  0
LINE
  5
63
330
17
100
AcDbEntity
  8
桩号
100
AcDbLine
 10
84715.10784561747
 20
12113.10580569408
 30
0.0
 11
84713.7488743855
 21
12109.343732171319
 31
0.0
  0
TEXT
  5
64
330
17
100
AcDbEntity
  8
桩号
100
AcDbText
 10
84712.05016034553
 20
12104.641140267866
 30
0.0
 40
3.0
  1
K1+325.000
 72
1
 11
84712.05016034553
 21
12104.641140267866
 31
0.0
100
AcDbText
  0
LINE
  5
65
330
17
100
AcDbEntity
  8
桩号
100
AcDbLine
 10
84715.7886572674
 20
12111.235738062496
 30
0.0
 11
84714.42228542131
 21
12107.476346093277
 31
0.0
  0
TEXT
  5
66
330
17
100
AcDbEntity
  8
桩号
100
AcDbText
 10
84712.7143206137
 20
12102.777106131756
 30
0.0
 40
3.0
  1
K1+326.988
 72
1
 11
84712.7143206137
 21
12102.777106131756
 31
0.0
100
AcDbText
  0
LINE
  5
67
330
17
100
AcDbEntity
  8
桩号
100
AcDbLine
 10
84723.9407495185
 20
12089.683731996873
 30
0.0
 11
84722.48823452032
 21
12085.956776110357
 31
0.0
  0
TEXT
  5
68
330
17
100
AcDbEntity
  8
桩号
100
AcDbText
 10
84720.67259077259
 20
12081.29808125221
 30
0.0
 40
3.0
  1
K1+350.000
 72
1
 11
84720.67259077259
 21
12081.29808125221
 31
0.0
100
AcDbText
  0
LINE
  5
69
330
17
100
AcDbEntity
  8
桩号
100
AcDbLine
 10
84733.35553105513
 20
12066.48741900518
 30
0.0
 11
84731.81030575238
 21
12062.7979368242
 31
0.0
  0
TEXT
  5
6A
330
17
100
AcDbEntity
  8
桩号
100
AcDbText
 10
84729.87877412396
 20
12058.186084097975
 30
0.0
 40
3.0
  1
K1+375.000
 72
1
 11
84729.87877412396
 21
12058.186084097975
 31
0.0
100
AcDbText
  0
LINE
  5
6B
330
17
100
AcDbEntity
  8
桩号
100
AcDbLine
 10
84743.34628130033
 20
12043.53138198909
 30
0.0
 11
84741.70931140854
 21
12039.881679319915
 31
0.0
  0
TEXT
  5
6C
330
17
100
AcDbEntity
  8
桩号
100
AcDbText
 10
84739.66309904381
 20
12035.319550983442
 30
0.0
 40
3.0
  1
K1+400.000
 72
1
 11
84739.66309904381
 21
12035.319550983442
 31
0.0
100
AcDbText
  0
LINE
  5
6D
330
17
100
AcDbEntity
  8
桩号
100
AcDbLine
 10
84753.90675636039
 20
12020.829967724492
 30
0.0
 11
84752.17906493247
 21
12017.222325512483
 31
0.0
  0
TEXT
  5
6E
330
17
100
AcDbEntity
  8
桩号
100
AcDbText
 10
84750.01945064755
 20
12012.712772747473
 30
0.0
 40
3.0
  1
K1+425.000
 72
1
 11
84750.01945064755
 21
12012.712772747473
 31
0.0
100
AcDbText
  0
LINE
  5
6F
330
17
100
AcDbEntity
  8
桩号
100
AcDbLine
 10
84765.03035628218
 20
11998.39736385634
 30
0.0
 11
84763.21302306901
 21
11994.834036760447
 31
0.0
  0
TEXT
  5
70
330
17
100
AcDbEntity
  8
桩号
100
AcDbText
 10
84760.94135655255
 20
11990.379877890582
 30
0.0
 40
3.0
  1
K1+450.000
 72
1
 11
84760.94135655255
 21
11990.379877890582
 31
0.0
100
AcDbText
  0
LINE
  5
71
330
17
100
AcDbEntity
  8
桩号
100
AcDbLine
 10
84769.98398746073
 20
11988.839259899049
 30
0.0
 11
84768.12846130802
 21
11985.29567094199
 31
0.0
  0
TEXT
  5
72
330
17
100
AcDbEntity
  8
桩号
100
AcDbText
 10
84765.80905361712
 20
11980.86618474567
 30
0.0
 40
3.0
  1
K1+460.748
 72
1
 11
84765.80905361712
 21
11980.86618474567
 31
0.0
100
AcDbText
  0
LINE
  5
73
330
17
100
AcDbEntity
  8
桩号
100
AcDbLine
 10
84776.71012917784
 20
11976.247590031833
 30
0.0
 11
84774.80428995352
 21
11972.730805015502
 31
0.0
  0
TEXT
  5
74
330
17
100
AcDbEntity
  8
桩号
100
AcDbText
 10
84772.42199092315
 20
11968.334823745086
 30
0.0
 40
3.0
  1
K1+475.000
 72
1
 11
84772.42199092315
 21
11968.334823745086
 31
0.0
100
AcDbText
  0
LINE
  5
75
330
17
100
AcDbEntity
  8
桩号
100
AcDbLine
 10
84788.93877556946
 20
11954.39448913861
 30
0.0
 11
84786.9456214215
 21
11950.926444077997
 31
0.0
  0
TEXT
  5
76
330
17
100
AcDbEntity
  8
桩号
100
AcDbText
 10
84784.45417873655
 20
11946.59138775223
 30
0.0
 40
3.0
  1
K1+500.000
 72
1
 11
84784.45417873655
 21
11946.59138775223
 31
0.0
100
AcDbText
  0
LINE
  5
77
330
17
100
AcDbEntity
  8
桩号
100
AcDbLine
 10
84801.70865295116
 20
11932.851718653377
 30
0.0
 11
84799.62942953598
 21
11929.434580963758
 31
0.0
  0
TEXT
  5
78
330
17
100
AcDbEntity
  8
桩号
100
AcDbText
 10
84797.03040026703
 20
11925.163158851732
 30
0.0
 40
3.0
  1
K1+525.000
 72
1
 11
84797.03040026703
 21
11925.163158851732
 31
0.0
100
AcDbText
  0
LINE
  5
79
330
17
100
AcDbEntity
  8
桩号
100
AcDbLine
 10
84815.01178056523
 20
11911.632742106442
 30
0.0
 11
84812.84778732981
 21
11908.268647387638
 31
0.0
  0
TEXT
  5
7A
330
17
100
AcDbEntity
  8
桩号
100
AcDbText
 10
84810.14279578555
 20
11904.063528989132
 30
0.0
 40
3.0
  1
K1+550.000
 72
1
 11
84810.14279578555
 21
11904.063528989132
 31
0.0
100
AcDbText
  0
LINE
  5
7B
330
17
100
AcDbEntity
  8
桩号
100
AcDbLine
 10
84828.83984438992
 20
11890.750820667437
 30
0.0
 11
84826.59243375958
 21
11887.441871369143
 31
0.0
  0
TEXT
  5
7C
330
17
100
AcDbEntity
  8
桩号
100
AcDbText
 10
84823.78317047168
 20
11883.305684746272
 30
0.0
 40
3.0
  1
K1+575.000
 72
1
 11
84823.78317047168
 21
11883.305684746272
 31
0.0
100
AcDbText
  0
LINE
  5
7D
330
17
100
AcDbEntity
  8
桩号
100
AcDbLine
 10
84839.98945640567
 20
11874.698455363869
 30
0.0
 11
84837.67792525455
 21
11871.433976272594
 31
0.0
  0
TEXT
  5
7E
330
17
100
AcDbEntity
  8
桩号
100
AcDbText
 10
84834.78851131564
 20
11867.3533774085
 30
0.0
 40
3.0
  1
K1+594.508
 72
1
 11
84834.78851131564
 21
11867.3533774085
 31
0.0
100
AcDbText
  0
LINE
  5
7F
330
17
100
AcDbEntity
  8
桩号
100
AcDbLine
 10
84843.18374052296
 20
11870.219004364095
 30
0.0
 11
84840.85480740918
 21
11866.966917257083
 31
0.0
  0
TEXT
  5
80
330
17
100
AcDbEntity
  8
桩号
100
AcDbText
 10
84837.94364101697
 20
11862.901808373319
 30
0.0
 40
3.0
  1
K1+600.000
 72
1
 11
84837.94364101697
 21
11862.901808373319
 31
0.0
100
AcDbText
  0
LINE
  5
81
330
17
100
AcDbEntity
  8
桩号
100
AcDbLine
 10
84857.99049829933
 20
11850.0275708605
 30
0.0
 11
84855.59538470322
 21
11846.823911880245
 31
0.0
  0
TEXT
  5
82
330
17
100
AcDbEntity
  8
桩号
100
AcDbText
 10
84852.6014927081
 20
11842.819338154928
 30
0.0
 40
3.0
  1
K1+625.000
 72
1
 11
84852.6014927081
 21
11842.819338154928
 31
0.0
100
AcDbText
  0
LINE
  5
83
330
17
100
AcDbEntity
  8
桩号
100
AcDbLine
 10
84873.13521022693
 20
11830.102695560294
 30
0.0
 11
84870.69468256639
 21
11826.933496175887
 31
0.0
  0
TEXT
  5
84
330
17
100
AcDbEntity
  8
桩号
100
AcDbText
 10
84867.6440229907
 20
11822.97199694538
 30
0.0
 40
3.0
  1
K1+650.000
 72
1
 11
84867.6440229907
 21
11822.97199694538
 31
0.0
100
AcDbText
  0
LINE
  5
85
330
17
100
AcDbEntity
  8
桩号
100
AcDbLine
 10
84888.49051857936
 20
11810.354613194579
 30
0.0
 11
84886.02470908804
 21
11807.205044406232
 31
0.0
  0
TEXT
  5
86
330
17
100
AcDbEntity
  8
桩号
100
AcDbText
 10
84882.94244722389
 20
11803.2680834208
 30
0.0
 40
3.0
  1
K1+675.000
 72
1
 11
84882.94244722389
 21
11803.2680834208
 31
0.0
100
AcDbText
  0
LINE
  5
87
330
17
100
AcDbEntity
  8
桩号
100
AcDbLine
 10
84900.5389783307
 20
11795.006784705649
 30
0.0
 11
84898.06718003852
 21
11791.861913769862
 31
0.0
  0
TEXT
  5
88
330
17
100
AcDbEntity
  8
桩号
100
AcDbText
 10
84894.97743217328
 20
11787.930825100128
 30
0.0
 40
3.0
  1
K1+694.508
 72
1
 11
84894.97743217328
 21
11787.930825100128
 31
0.0
100
AcDbText
  0
TEXT
  5
89
330
17
100
AcDbEntity
  8
曲线要素表
100
AcDbText
 10
84665.62755302904
 20
11826.843626686947
 30
0.0
 40
3.0
  1
点名
 72
1
 11
84665.62755302904
 21
11826.843626686947
 31
0.0
100
AcDbText
 73
2
  0
TEXT
  5
8A
330
17
100
AcDbEntity
  8
曲线要素表
100
AcDbText
 10
84697.62755302904
 20
11826.843626686947
 30
0.0
 40
3.0
  1
桩号
 72
1
 11
84697.62755302904
 21
11826.843626686947
 31
0.0
100
AcDbText
 73
2
  0
TEXT
  5
8B
330
17
100
AcDbEntity
  8
曲线要素表
100
AcDbText
 10
84738.62755302904
 20
11826.843626686947
 30
0.0
 40
3.0
  1
坐标X
 72
1
 11
84738.62755302904
 21
11826.843626686947
 31
0.0
100
AcDbText
 73
2
  0
TEXT
  5
8C
330
17
100
AcDbEntity
  8
曲线要素表
100
AcDbText
 10
84778.62755302904
 20
11826.843626686947
 30
0.0
 40
3.0
  1
坐标Y
 72
1
 11
84778.62755302904
 21
11826.843626686947
 31
0.0
100
AcDbText
 73
2
  0
TEXT
  5
8D
330
17
100
AcDbEntity
  8
曲线要素表
100
AcDbText
 10
84822.62755302904
 20
11826.843626686947
 30
0.0
 40
3.0
  1
方位角
 72
1
 11
84822.62755302904
 21
11826.843626686947
 31
0.0
100
AcDbText
 73
2
  0
TEXT
  5
8E
330
17
100
AcDbEntity
  8
曲线要素表
100
AcDbText
 10
84860.62755302904
 20
11826.843626686947
 30
0.0
 40
3.0
  1
R(m)
 72
1
 11
84860.62755302904
 21
11826.843626686947
 31
0.0
100
AcDbText
 73
2
  0
LINE
  5
8F
330
17
100
AcDbEntity
  8
曲线要素表
100
AcDbLine
 10
84654.62755302904
 20
11822.843626686947
 30
0.0
 11
84874.62755302904
 21
11822.843626686947
 31
0.0
  0
TEXT
  5
90
330
17
100
AcDbEntity
  8
曲线要素表
100
AcDbText
 10
84665.62755302904
 20
11818.843626686947
 30
0.0
 40
3.0
  1
ZH
 72
1
 11
84665.62755302904
 21
11818.843626686947
 31
0.0
100
AcDbText
 73
2
  0
TEXT
  5
91
330
17
100
AcDbEntity
  8
曲线要素表
100
AcDbText
 10
84697.62755302904
 20
11818.843626686947
 30
0.0
 40
3.0
  1
K1+226.988
 72
1
 11
84697.62755302904
 21
11818.843626686947
 31
0.0
100
AcDbText
 73
2
  0
TEXT
  5
92
330
17
100
AcDbEntity
  8
曲线要素表
100
AcDbText
 10
84738.62755302904
 20
11818.843626686947
 30
0.0
 40
3.0
  1
84684.101
 72
1
 11
84738.62755302904
 21
11818.843626686947
 31
0.0
100
AcDbText
 73
2
  0
TEXT
  5
93
330
17
100
AcDbEntity
  8
曲线要素表
100
AcDbText
 10
84778.62755302904
 20
11818.843626686947
 30
0.0
 40
3.0
  1
12204.417
 72
1
 11
84778.62755302904
 21
11818.843626686947
 31
0.0
100
AcDbText
 73
2
  0
TEXT
  5
94
330
17
100
AcDbEntity
  8
曲线要素表
100
AcDbText
 10
84822.62755302904
 20
11818.843626686947
 30
0.0
 40
3.0
  1
287.06330
 72
1
 11
84822.62755302904
 21
11818.843626686947
 31
0.0
100
AcDbText
 73
2
  0
TEXT
  5
95
330
17
100
AcDbEntity
  8
曲线要素表
100
AcDbText
 10
84860.62755302904
 20
11818.843626686947
 30
0.0
 40
3.0
  1
1000.000
 72
1
 11
84860.62755302904
 21
11818.843626686947
 31
0.0
100
AcDbText
 73
2
  0
LINE
  5
96
330
17
100
AcDbEntity
  8
曲线要素表
100
AcDbLine
 10
84654.62755302904
 20
11814.843626686947
 30
0.0
 11
84874.62755302904
 21
11814.843626686947
 31
0.0
  0
TEXT
  5
97
330
17
100
AcDbEntity
  8
曲线要素表
100
AcDbText
 10
84665.62755302904
 20
11810.843626686947
 30
0.0
 40
3.0
  1
HY
 72
1
 11
84665.62755302904
 21
11810.843626686947
 31
0.0
100
AcDbText
 73
2
  0
TEXT
  5
98
330
17
100
AcDbEntity
  8
曲线要素表
100
AcDbText
 10
84697.62755302904
 20
11810.843626686947
 30
0.0
 40
3.0
  1
K1+326.988
 72
1
 11
84697.62755302904
 21
11810.843626686947
 31
0.0
100
AcDbText
 73
2
  0
TEXT
  5
99
330
17
100
AcDbEntity
  8
曲线要素表
100
AcDbText
 10
84738.62755302904
 20
11810.843626686947
 30
0.0
 40
3.0
  1
84715.105
 72
1
 11
84738.62755302904
 21
11810.843626686947
 31
0.0
100
AcDbText
 73
2
  0
TEXT
  5
9A
330
17
100
AcDbEntity
  8
曲线要素表
100
AcDbText
 10
84778.62755302904
 20
11810.843626686947
 30
0.0
 40
3.0
  1
12109.356
 72
1
 11
84778.62755302904
 21
11810.843626686947
 31
0.0
100
AcDbText
 73
2
  0
TEXT
  5
9B
330
17
100
AcDbEntity
  8
曲线要素表
100
AcDbText
 10
84822.62755302904
 20
11810.843626686947
 30
0.0
 40
3.0
  1
289.58262
 72
1
 11
84822.62755302904
 21
11810.843626686947
 31
0.0
100
AcDbText
 73
2
  0
TEXT
  5
9C
330
17
100
AcDbEntity
  8
曲线要素表
100
AcDbText
 10
84860.62755302904
 20
11810.843626686947
 30
0.0
 40
3.0
  1
1000.000
 72
1
 11
84860.62755302904
 21
11810.843626686947
 31
0.0
100
AcDbText
 73
2
  0
LINE
  5
9D
330
17
100
AcDbEntity
  8
曲线要素表
100
AcDbLine
 10
84654.62755302904
 20
11806.843626686947
 30
0.0
 11
84874.62755302904
 21
11806.843626686947
 31
0.0
  0
TEXT
  5
9E
330
17
100
AcDbEntity
  8
曲线要素表
100
AcDbText
 10
84665.62755302904
 20
11802.843626686947
 30
0.0
 40
3.0
  1
QZ
 72
1
 11
84665.62755302904
 21
11802.843626686947
 31
0.0
100
AcDbText
 73
2
  0
TEXT
  5
9F
330
17
100
AcDbEntity
  8
曲线要素表
100
AcDbText
 10
84697.62755302904
 20
11802.843626686947
 30
0.0
 40
3.0
  1
K1+460.748
 72
1
 11
84697.62755302904
 21
11802.843626686947
 31
0.0
100
AcDbText
 73
2
  0
TEXT
  5
A0
330
17
100
AcDbEntity
  8
曲线要素表
100
AcDbText
 10
84738.62755302904
 20
11802.843626686947
 30
0.0
 40
3.0
  1
84769.056
 72
1
 11
84738.62755302904
 21
11802.843626686947
 31
0.0
100
AcDbText
 73
2
  0
TEXT
  5
A1
330
17
100
AcDbEntity
  8
曲线要素表
100
AcDbText
 10
84778.62755302904
 20
11802.843626686947
 30
0.0
 40
3.0
  1
11987.067
 72
1
 11
84778.62755302904
 21
11802.843626686947
 31
0.0
100
AcDbText
 73
2
  0
TEXT
  5
A2
330
17
100
AcDbEntity
  8
曲线要素表
100
AcDbText
 10
84822.62755302904
 20
11802.843626686947
 30
0.0
 40
3.0
  1
297.38163
 72
1
 11
84822.62755302904
 21
11802.843626686947
 31
0.0
100
AcDbText
 73
2
  0
TEXT
  5
A3
330
17
100
AcDbEntity
  8
曲线要素表
100
AcDbText
 10
84860.62755302904
 20
11802.843626686947
 30
0.0
 40
3.0
  1
1000.000
 72
1
 11
84860.62755302904
 21
11802.843626686947
 31
0.0
100
AcDbText
 73
2
  0
LINE
  5
A4
330
17
100
AcDbEntity
  8
曲线要素表
100
AcDbLine
 10
84654.62755302904
 20
11798.843626686947
 30
0.0
 11
84874.62755302904
 21
11798.843626686947
 31
0.0
  0
TEXT
  5
A5
330
17
100
AcDbEntity
  8
曲线要素表
100
AcDbText
 10
84665.62755302904
 20
11794.843626686947
 30
0.0
 40
3.0
  1
YH
 72
1
 11
84665.62755302904
 21
11794.843626686947
 31
0.0
100
AcDbText
 73
2
  0
TEXT
  5
A6
330
17
100
AcDbEntity
  8
曲线要素表
100
AcDbText
 10
84697.62755302904
 20
11794.843626686947
 30
0.0
 40
3.0
  1
K1+594.508
 72
1
 11
84697.62755302904
 21
11794.843626686947
 31
0.0
100
AcDbText
 73
2
  0
TEXT
  5
A7
330
17
100
AcDbEntity
  8
曲线要素表
100
AcDbText
 10
84738.62755302904
 20
11794.843626686947
 30
0.0
 40
3.0
  1
84838.834
 72
1
 11
84738.62755302904
 21
11794.843626686947
 31
0.0
100
AcDbText
 73
2
  0
TEXT
  5
A8
330
17
100
AcDbEntity
  8
曲线要素表
100
AcDbText
 10
84778.62755302904
 20
11794.843626686947
 30
0.0
 40
3.0
  1
11873.066
 72
1
 11
84778.62755302904
 21
11794.843626686947
 31
0.0
100
AcDbText
 73
2
  0
TEXT
  5
A9
330
17
100
AcDbEntity
  8
曲线要素表
100
AcDbText
 10
84822.62755302904
 20
11794.843626686947
 30
0.0
 40
3.0
  1
305.18064
 72
1
 11
84822.62755302904
 21
11794.843626686947
 31
0.0
100
AcDbText
 73
2
  0
TEXT
  5
AA
330
17
100
AcDbEntity
  8
曲线要素表
100
AcDbText
 10
84860.62755302904
 20
11794.843626686947
 30
0.0
 40
3.0
  1
1000.000
 72
1
 11
84860.62755302904
 21
11794.843626686947
 31
0.0
100
AcDbText
 73
2
  0
LINE
  5
AB
330
17
100
AcDbEntity
  8
曲线要素表
100
AcDbLine
 10
84654.62755302904
 20
11790.843626686947
 30
0.0
 11
84874.62755302904
 21
11790.843626686947
 31
0.0
  0
TEXT
  5
AC
330
17
100
AcDbEntity
  8
曲线要素表
100
AcDbText
 10
84665.62755302904
 20
11786.843626686947
 30
0.0
 40
3.0
  1
HZ
 72
1
 11
84665.62755302904
 21
11786.843626686947
 31
0.0
100
AcDbText
 73
2
  0
TEXT
  5
AD
330
17
100
AcDbEntity
  8
曲线要素表
100
AcDbText
 10
84697.62755302904
 20
11786.843626686947
 30
0.0
 40
3.0
  1
K1+694.508
 72
1
 11
84697.62755302904
 21
11786.843626686947
 31
0.0
100
AcDbText
 73
2
  0
TEXT
  5
AE
330
17
100
AcDbEntity
  8
曲线要素表
100
AcDbText
 10
84738.62755302904
 20
11786.843626686947
 30
0.0
 40
3.0
  1
84899.303
 72
1
 11
84738.62755302904
 21
11786.843626686947
 31
0.0
100
AcDbText
 73
2
  0
TEXT
  5
AF
330
17
100
AcDbEntity
  8
曲线要素表
100
AcDbText
 10
84778.62755302904
 20
11786.843626686947
 30
0.0
 40
3.0
  1
11793.434
 72
1
 11
84778.62755302904
 21
11786.843626686947
 31
0.0
100
AcDbText
 73
2
  0
TEXT
  5
B0
330
17
100
AcDbEntity
  8
曲线要素表
100
AcDbText
 10
84822.62755302904
 20
11786.843626686947
 30
0.0
 40
3.0
  1
308.09596
 72
1
 11
84822.62755302904
 21
11786.843626686947
 31
0.0
100
AcDbText
 73
2
  0
TEXT
  5
B1
330
17
100
AcDbEntity
  8
曲线要素表
100
AcDbText
 10
84860.62755302904
 20
11786.843626686947
 30
0.0
 40
3.0
  1
1000.000
 72
1
 11
84860.62755302904
 21
11786.843626686947
 31
0.0
100
AcDbText
 73
2
  0
LINE
  5
B2
330
17
100
AcDbEntity
  8
曲线要素表
100
AcDbLine
 10
84654.62755302904
 20
11782.843626686947
 30
0.0
 11
84874.62755302904
 21
11782.843626686947
 31
0.0
  0
LINE
  5
B3
330
17
100
AcDbEntity
  8
曲线要素表
100
AcDbLine
 10
84654.62755302904
 20
11830.843626686947
 30
0.0
 11
84654.62755302904
 21
11782.843626686947
 31
0.0
  0
LINE
  5
B4
330
17
100
AcDbEntity
  8
曲线要素表
100
AcDbLine
 10
84676.62755302904
 20
11830.843626686947
 30
0.0
 11
84676.62755302904
 21
11782.843626686947
 31
0.0
  0
LINE
  5
B5
330
17
100
AcDbEntity
  8
曲线要素表
100
AcDbLine
 10
84718.62755302904
 20
11830.843626686947
 30
0.0
 11
84718.62755302904
 21
11782.843626686947
 31
0.0
  0
LINE
  5
B6
330
17
100
AcDbEntity
  8
曲线要素表
100
AcDbLine
 10
84758.62755302904
 20
11830.843626686947
 30
0.0
 11
84758.62755302904
 21
11782.843626686947
 31
0.0
  0
LINE
  5
B7
330
17
100
AcDbEntity
  8
曲线要素表
100
AcDbLine
 10
84798.62755302904
 20
11830.843626686947
 30
0.0
 11
84798.62755302904
 21
11782.843626686947
 31
0.0
  0
LINE
  5
B8
330
17
100
AcDbEntity
  8
曲线要素表
100
AcDbLine
 10
84846.62755302904
 20
11830.843626686947
 30
0.0
 11
84846.62755302904
 21
11782.843626686947
 31
0.0
  0
LINE
  5
B9
330
17
100
AcDbEntity
  8
曲线要素表
100
AcDbLine
 10
84874.62755302904
 20
11830.843626686947
 30
0.0
 11
84874.62755302904
 21
11782.843626686947
 31
0.0
  0
ENDSEC
  0
SECTION
  2
OBJECTS
  0
DICTIONARY
  5
A
330
0
100
AcDbDictionary
281
1
  3
ACAD_COLOR
350
B
  3
ACAD_GROUP
350
C
  3
ACAD_LAYOUT
350
D
  3
ACAD_MATERIAL
350
E
  3
ACAD_MLEADERSTYLE
350
F
  3
ACAD_MLINESTYLE
350
10
  3
ACAD_PLOTSETTINGS
350
11
  3
ACAD_PLOTSTYLENAME
350
12
  3
ACAD_SCALELIST
350
14
  3
ACAD_TABLESTYLE
350
15
  3
ACAD_VISUALSTYLE
350
16
  3
EZDXF_META
350
2D
  0
DICTIONARY
  5
B
330
A
100
AcDbDictionary
281
1
  0
DICTIONARY
  5
C
330
A
100
AcDbDictionary
281
1
  0
DICTIONARY
  5
D
330
A
100
AcDbDictionary
281
1
  3
Model
350
1A
  3
Layout1
350
1E
  0
DICTIONARY
  5
E
330
A
100
AcDbDictionary
281
1
  3
ByBlock
350
1F
  3
ByLayer
350
20
  3
Global
350
21
  0
DICTIONARY
  5
F
330
A
100
AcDbDictionary
281
1
  3
Standard
350
2C
  0
DICTIONARY
  5
10
330
A
100
AcDbDictionary
281
1
  3
Standard
350
22
  0
DICTIONARY
  5
11
330
A
100
AcDbDictionary
281
1
  0
ACDBDICTIONARYWDFLT
  5
12
330
A
100
AcDbDictionary
281
1
  3
Normal
350
13
100
AcDbDictionaryWithDefault
340
13
  0
ACDBPLACEHOLDER
  5
13
330
12
  0
DICTIONARY
  5
14
330
A
100
AcDbDictionary
281
1
  0
DICTIONARY
  5
15
330
A
100
AcDbDictionary
281
1
  0
DICTIONARY
  5
16
330
A
100
AcDbDictionary
281
1
  0
LAYOUT
  5
1A
330
D
100
AcDbPlotSettings
  1

  4
A3
  6

 40
7.5
 41
20.0
 42
7.5
 43
20.0
 44
420.0
 45
297.0
 46
0.0
 47
0.0
 48
0.0
 49
0.0
140
0.0
141
0.0
142
1.0
143
1.0
 70
1024
 72
1
 73
0
 74
5
  7

 75
16
 76
0
 77
2
 78
300
147
1.0
148
0.0
149
0.0
100
AcDbLayout
  1
Model
 70
1
 71
0
 10
0.0
 20
0.0
 11
420.0
 21
297.0
 12
0.0
 22
0.0
 32
0.0
 14
1e+20
 24
1e+20
 34
1e+20
 15
-1e+20
 25
-1e+20
 35
-1e+20
146
0.0
 13
0.0
 23
0.0
 33
0.0
 16
1.0
 26
0.0
 36
0.0
 17
0.0
 27
1.0
 37
0.0
 76
1
330
17
  0
LAYOUT
  5
1E
330
D
100
AcDbPlotSettings
  1

  4
A3
  6

 40
7.5
 41
20.0
 42
7.5
 43
20.0
 44
420.0
 45
297.0
 46
0.0
 47
0.0
 48
0.0
 49
0.0
140
0.0
141
0.0
142
1.0
143
1.0
 70
0
 72
1
 73
0
 74
5
  7

 75
16
 76
0
 77
2
 78
300
147
1.0
148
0.0
149
0.0
100
AcDbLayout
  1
Layout1
 70
1
 71
1
 10
0.0
 20
0.0
 11
420.0
 21
297.0
 12
0.0
 22
0.0
 32
0.0
 14
1e+20
 24
1e+20
 34
1e+20
 15
-1e+20
 25
-1e+20
 35
-1e+20
146
0.0
 13
0.0
 23
0.0
 33
0.0
 16
1.0
 26
0.0
 36
0.0
 17
0.0
 27
1.0
 37
0.0
 76
1
330
1B
  0
MATERIAL
  5
1F
102
{ACAD_REACTORS
330
E
102
}
330
E
100
AcDbMaterial
  1
ByBlock
  2

 70
0
 40
1.0
 71
1
 41
1.0
 91
-1023410177
 42
1.0
 72
1
  3

 73
1
 74
1
 75
1
 44
0.5
 73
0
 45
1.0
 46
1.0
 77
1
  4

 78
1
 79
1
170
1
 48
1.0
171
1
  6

172
1
173
1
174
1
140
1.0
141
1.0
175
1
  7

176
1
177
1
178
1
143
1.0
179
1
  8

270
1
271
1
272
1
145
1.0
146
1.0
273
1
  9

274
1
275
1
276
1
 42
1.0
 72
1
  3

 73
1
 74
1
 75
1
 94
63
  0
MATERIAL
  5
20
102
{ACAD_REACTORS
330
E
102
}
330
E
100
AcDbMaterial
  1
ByLayer
  2

 70
0
 40
1.0
 71
1
 41
1.0
 91
-1023410177
 42
1.0
 72
1
  3

 73
1
 74
1
 75
1
 44
0.5
 73
0
 45
1.0
 46
1.0
 77
1
  4

 78
1
 79
1
170
1
 48
1.0
171
1
  6

172
1
173
1
174
1
140
1.0
141
1.0
175
1
  7

176
1
177
1
178
1
143
1.0
179
1
  8

270
1
271
1
272
1
145
1.0
146
1.0
273
1
  9

274
1
275
1
276
1
 42
1.0
 72
1
  3

 73
1
 74
1
 75
1
 94
63
  0
MATERIAL
  5
21
102
{ACAD_REACTORS
330
E
102
}
330
E
100
AcDbMaterial
  1
Global
  2

 70
0
 40
1.0
 71
1
 41
1.0
 91
-1023410177
 42
1.0
 72
1
  3

 73
1
 74
1
 75
1
 44
0.5
 73
0
 45
1.0
 46
1.0
 77
1
  4

 78
1
 79
1
170
1
 48
1.0
171
1
  6

172
1
173
1
174
1
140
1.0
141
1.0
175
1
  7

176
1
177
1
178
1
143
1.0
179
1
  8

270
1
271
1
272
1
145
1.0
146
1.0
273
1
  9

274
1
275
1
276
1
 42
1.0
 72
1
  3

 73
1
 74
1
 75
1
 94
63
  0
MLINESTYLE
  5
22
102
{ACAD_REACTORS
330
10
102
}
330
10
100
AcDbMlineStyle
  2
Standard
 70
0
  3

 62
256
 51
90.0
 52
90.0
 71
2
 49
0.5
 62
256
  6
BYLAYER
 49
-0.5
 62
256
  6
BYLAYER
  0
MLEADERSTYLE
  5
2C
102
{ACAD_REACTORS
330
F
102
}
330
F
100
AcDbMLeaderStyle
179
2
170
2
171
1
172
0
 90
2
 40
0.0
 41
0.0
173
1
 91
-1056964608
 92
-2
290
1
 42
2.0
291
1
 43
8.0
  3
Standard
 44
4.0
300

342
29
174
1
175
1
176
0
178
1
 93
-1056964608
 45
4.0
292
0
297
0
 46
4.0
 94
-1056964608
 47
1.0
 49
1.0
140
1.0
294
1
141
0.0
177
0
142
1.0
295
0
296
0
143
3.75
271
0
272
9
273
9
  0
DICTIONARY
  5
2D
330
A
100
AcDbDictionary
280
1
281
1
  3
CREATED_BY_EZDXF
350
2E
  3
WRITTEN_BY_EZDXF
350
BC
  0
DICTIONARYVAR
  5
2E
330
2D
100
DictionaryVariables
280
0
  1
1.4.2 @ 2025-10-12T17:59:57.349916+00:00
  0
DICTIONARYVAR
  5
BC
330
2D
100
DictionaryVariables
280
0
  1
1.4.2 @ 2025-10-12T17:59:57.361637+00:00
  0
ENDSEC
  0
EOF
