  0
SECTION
  2
HEADER
  9
$ACADVER
  1
AC1024
  9
$ACADMAINTVER
 70
6
  9
$DWGCODEPAGE
  3
ANSI_1252
  9
$LASTSAVEDBY
  1
ezdxf
  9
$INSBASE
 10
0.0
 20
0.0
 30
0.0
  9
$EXTMIN
 10
1e+20
 20
1e+20
 30
1e+20
  9
$EXTMAX
 10
-1e+20
 20
-1e+20
 30
-1e+20
  9
$LIMMIN
 10
0.0
 20
0.0
  9
$LIMMAX
 10
420.0
 20
297.0
  9
$ORTHOMODE
 70
0
  9
$REGENMODE
 70
1
  9
$FILLMODE
 70
1
  9
$QTEXTMODE
 70
0
  9
$MIRRTEXT
 70
1
  9
$LTSCALE
 40
1.0
  9
$ATTMODE
 70
1
  9
$TEXTSIZE
 40
2.5
  9
$TRACEWID
 40
1.0
  9
$TEXTSTYLE
  7
Standard
  9
$CLAYER
  8
0
  9
$CELTYPE
  6
ByLayer
  9
$CECOLOR
 62
256
  9
$CELTSCALE
 40
1.0
  9
$DISPSILH
 70
0
  9
$DIMSCALE
 40
1.0
  9
$DIMASZ
 40
2.5
  9
$DIMEXO
 40
0.625
  9
$DIMDLI
 40
3.75
  9
$DIMRND
 40
0.0
  9
$DIMDLE
 40
0.0
  9
$DIMEXE
 40
1.25
  9
$DIMTP
 40
0.0
  9
$DIMTM
 40
0.0
  9
$DIMTXT
 40
2.5
  9
$DIMCEN
 40
2.5
  9
$DIMTSZ
 40
0.0
  9
$DIMTOL
 70
0
  9
$DIMLIM
 70
0
  9
$DIMTIH
 70
0
  9
$DIMTOH
 70
0
  9
$DIMSE1
 70
0
  9
$DIMSE2
 70
0
  9
$DIMTAD
 70
1
  9
$DIMZIN
 70
8
  9
$DIMBLK
  1

  9
$DIMASO
 70
1
  9
$DIMSHO
 70
1
  9
$DIMPOST
  1

  9
$DIMAPOST
  1

  9
$DIMALT
 70
0
  9
$DIMALTD
 70
3
  9
$DIMALTF
 40
0.03937007874
  9
$DIMLFAC
 40
1.0
  9
$DIMTOFL
 70
1
  9
$DIMTVP
 40
0.0
  9
$DIMTIX
 70
0
  9
$DIMSOXD
 70
0
  9
$DIMSAH
 70
0
  9
$DIMBLK1
  1

  9
$DIMBLK2
  1

  9
$DIMSTYLE
  2
ISO-25
  9
$DIMCLRD
 70
0
  9
$DIMCLRE
 70
0
  9
$DIMCLRT
 70
0
  9
$DIMTFAC
 40
1.0
  9
$DIMGAP
 40
0.625
  9
$DIMJUST
 70
0
  9
$DIMSD1
 70
0
  9
$DIMSD2
 70
0
  9
$DIMTOLJ
 70
0
  9
$DIMTZIN
 70
8
  9
$DIMALTZ
 70
0
  9
$DIMALTTZ
 70
0
  9
$DIMUPT
 70
0
  9
$DIMDEC
 70
2
  9
$DIMTDEC
 70
2
  9
$DIMALTU
 70
2
  9
$DIMALTTD
 70
3
  9
$DIMTXSTY
  7
Standard
  9
$DIMAUNIT
 70
0
  9
$DIMADEC
 70
0
  9
$DIMALTRND
 40
0.0
  9
$DIMAZIN
 70
0
  9
$DIMDSEP
 70
44
  9
$DIMATFIT
 70
3
  9
$DIMFRAC
 70
0
  9
$DIMLDRBLK
  1

  9
$DIMLUNIT
 70
2
  9
$DIMLWD
 70
-2
  9
$DIMLWE
 70
-2
  9
$DIMTMOVE
 70
0
  9
$DIMFXL
 40
1.0
  9
$DIMFXLON
 70
0
  9
$DIMJOGANG
 40
0.785398163397
  9
$DIMTFILL
 70
0
  9
$DIMTFILLCLR
 70
0
  9
$DIMARCSYM
 70
0
  9
$DIMLTYPE
  6

  9
$DIMLTEX1
  6

  9
$DIMLTEX2
  6

  9
$DIMTXTDIRECTION
 70
0
  9
$LUNITS
 70
2
  9
$LUPREC
 70
4
  9
$SKETCHINC
 40
1.0
  9
$FILLETRAD
 40
10.0
  9
$AUNITS
 70
0
  9
$AUPREC
 70
2
  9
$MENU
  1
.
  9
$ELEVATION
 40
0.0
  9
$PELEVATION
 40
0.0
  9
$THICKNESS
 40
0.0
  9
$LIMCHECK
 70
0
  9
$CHAMFERA
 40
0.0
  9
$CHAMFERB
 40
0.0
  9
$CHAMFERC
 40
0.0
  9
$CHAMFERD
 40
0.0
  9
$SKPOLY
 70
0
  9
$TDCREATE
 40
2460962.0597222224
  9
$TDUCREATE
 40
2458532.153996898
  9
$TDUPDATE
 40
2460962.0597222224
  9
$TDUUPDATE
 40
2458532.1544311
  9
$TDINDWG
 40
0.0
  9
$TDUSRTIMER
 40
0.0
  9
$USRTIMER
 70
1
  9
$ANGBASE
 50
0.0
  9
$ANGDIR
 70
0
  9
$PDMODE
 70
0
  9
$PDSIZE
 40
0.0
  9
$PLINEWID
 40
0.0
  9
$SPLFRAME
 70
0
  9
$SPLINETYPE
 70
6
  9
$SPLINESEGS
 70
8
  9
$HANDSEED
  5
C1
  9
$SURFTAB1
 70
6
  9
$SURFTAB2
 70
6
  9
$SURFTYPE
 70
6
  9
$SURFU
 70
6
  9
$SURFV
 70
6
  9
$UCSBASE
  2

  9
$UCSNAME
  2

  9
$UCSORG
 10
0.0
 20
0.0
 30
0.0
  9
$UCSXDIR
 10
1.0
 20
0.0
 30
0.0
  9
$UCSYDIR
 10
0.0
 20
1.0
 30
0.0
  9
$UCSORTHOREF
  2

  9
$UCSORTHOVIEW
 70
0
  9
$UCSORGTOP
 10
0.0
 20
0.0
 30
0.0
  9
$UCSORGBOTTOM
 10
0.0
 20
0.0
 30
0.0
  9
$UCSORGLEFT
 10
0.0
 20
0.0
 30
0.0
  9
$UCSORGRIGHT
 10
0.0
 20
0.0
 30
0.0
  9
$UCSORGFRONT
 10
0.0
 20
0.0
 30
0.0
  9
$UCSORGBACK
 10
0.0
 20
0.0
 30
0.0
  9
$PUCSBASE
  2

  9
$PUCSNAME
  2

  9
$PUCSORG
 10
0.0
 20
0.0
 30
0.0
  9
$PUCSXDIR
 10
1.0
 20
0.0
 30
0.0
  9
$PUCSYDIR
 10
0.0
 20
1.0
 30
0.0
  9
$PUCSORTHOREF
  2

  9
$PUCSORTHOVIEW
 70
0
  9
$PUCSORGTOP
 10
0.0
 20
0.0
 30
0.0
  9
$PUCSORGBOTTOM
 10
0.0
 20
0.0
 30
0.0
  9
$PUCSORGLEFT
 10
0.0
 20
0.0
 30
0.0
  9
$PUCSORGRIGHT
 10
0.0
 20
0.0
 30
0.0
  9
$PUCSORGFRONT
 10
0.0
 20
0.0
 30
0.0
  9
$PUCSORGBACK
 10
0.0
 20
0.0
 30
0.0
  9
$USERI1
 70
0
  9
$USERI2
 70
0
  9
$USERI3
 70
0
  9
$USERI4
 70
0
  9
$USERI5
 70
0
  9
$USERR1
 40
0.0
  9
$USERR2
 40
0.0
  9
$USERR3
 40
0.0
  9
$USERR4
 40
0.0
  9
$USERR5
 40
0.0
  9
$WORLDVIEW
 70
1
  9
$SHADEDGE
 70
3
  9
$SHADEDIF
 70
70
  9
$TILEMODE
 70
1
  9
$MAXACTVP
 70
64
  9
$PINSBASE
 10
0.0
 20
0.0
 30
0.0
  9
$PLIMCHECK
 70
0
  9
$PEXTMIN
 10
1e+20
 20
1e+20
 30
1e+20
  9
$PEXTMAX
 10
-1e+20
 20
-1e+20
 30
-1e+20
  9
$PLIMMIN
 10
0.0
 20
0.0
  9
$PLIMMAX
 10
420.0
 20
297.0
  9
$UNITMODE
 70
0
  9
$VISRETAIN
 70
1
  9
$PLINEGEN
 70
0
  9
$PSLTSCALE
 70
1
  9
$TREEDEPTH
 70
3020
  9
$CMLSTYLE
  2
Standard
  9
$CMLJUST
 70
0
  9
$CMLSCALE
 40
20.0
  9
$PROXYGRAPHICS
 70
1
  9
$MEASUREMENT
 70
1
  9
$CELWEIGHT
370
-1
  9
$ENDCAPS
280
0
  9
$JOINSTYLE
280
0
  9
$LWDISPLAY
290
0
  9
$INSUNITS
 70
6
  9
$HYPERLINKBASE
  1

  9
$STYLESHEET
  1

  9
$XEDIT
290
1
  9
$CEPSNTYPE
380
0
  9
$PSTYLEMODE
290
1
  9
$FINGERPRINTGUID
  2
{5DE45B32-7730-475C-B4F1-A32F3E690D72}
  9
$VERSIONGUID
  2
{DB60ED36-6577-4753-B6FD-F872BAB734E9}
  9
$EXTNAMES
290
1
  9
$PSVPSCALE
 40
0.0
  9
$OLESTARTUP
290
0
  9
$SORTENTS
280
127
  9
$INDEXCTL
280
0
  9
$HIDETEXT
280
1
  9
$XCLIPFRAME
280
1
  9
$HALOGAP
280
0
  9
$OBSCOLOR
 70
257
  9
$OBSLTYPE
280
0
  9
$INTERSECTIONDISPLAY
280
0
  9
$INTERSECTIONCOLOR
 70
257
  9
$DIMASSOC
280
2
  9
$PROJECTNAME
  1

  9
$CAMERADISPLAY
290
0
  9
$LENSLENGTH
 40
50.0
  9
$CAMERAHEIGHT
 40
0.0
  9
$STEPSPERSEC
 40
24.0
  9
$STEPSIZE
 40
100.0
  9
$3DDWFPREC
 40
2.0
  9
$PSOLWIDTH
 40
0.005
  9
$PSOLHEIGHT
 40
0.08
  9
$LOFTANG1
 40
1.570796326795
  9
$LOFTANG2
 40
1.570796326795
  9
$LOFTMAG1
 40
0.0
  9
$LOFTMAG2
 40
0.0
  9
$LOFTPARAM
 70
7
  9
$LOFTNORMALS
280
1
  9
$LATITUDE
 40
37.795
  9
$LONGITUDE
 40
-122.394
  9
$NORTHDIRECTION
 40
0.0
  9
$TIMEZONE
 70
-8000
  9
$LIGHTGLYPHDISPLAY
280
1
  9
$TILEMODELIGHTSYNCH
280
1
  9
$CMATERIAL
347
20
  9
$SOLIDHIST
280
0
  9
$SHOWHIST
280
1
  9
$DWFFRAME
280
2
  9
$DGNFRAME
280
2
  9
$REALWORLDSCALE
290
1
  9
$INTERFERECOLOR
 62
256
  9
$CSHADOW
280
0
  9
$SHADOWPLANELOCATION
 40
0.0
  0
ENDSEC
  0
SECTION
  2
CLASSES
  0
CLASS
  1
ACDBDICTIONARYWDFLT
  2
AcDbDictionaryWithDefault
  3
ObjectDBX Classes
 90
0
 91
0
280
0
281
0
  0
CLASS
  1
SUN
  2
AcDbSun
  3
SCENEOE
 90
1153
 91
0
280
0
281
0
  0
CLASS
  1
VISUALSTYLE
  2
AcDbVisualStyle
  3
ObjectDBX Classes
 90
4095
 91
0
280
0
281
0
  0
CLASS
  1
MATERIAL
  2
AcDbMaterial
  3
ObjectDBX Classes
 90
1153
 91
0
280
0
281
0
  0
CLASS
  1
SCALE
  2
AcDbScale
  3
ObjectDBX Classes
 90
1153
 91
0
280
0
281
0
  0
CLASS
  1
TABLESTYLE
  2
AcDbTableStyle
  3
ObjectDBX Classes
 90
4095
 91
0
280
0
281
0
  0
CLASS
  1
MLEADERSTYLE
  2
AcDbMLeaderStyle
  3
ACDB_MLEADERSTYLE_CLASS
 90
4095
 91
0
280
0
281
0
  0
CLASS
  1
DICTIONARYVAR
  2
AcDbDictionaryVar
  3
ObjectDBX Classes
 90
0
 91
0
280
0
281
0
  0
CLASS
  1
CELLSTYLEMAP
  2
AcDbCellStyleMap
  3
ObjectDBX Classes
 90
1152
 91
0
280
0
281
0
  0
CLASS
  1
MENTALRAYRENDERSETTINGS
  2
AcDbMentalRayRenderSettings
  3
SCENEOE
 90
1024
 91
0
280
0
281
0
  0
CLASS
  1
ACDBDETAILVIEWSTYLE
  2
AcDbDetailViewStyle
  3
ObjectDBX Classes
 90
1025
 91
0
280
0
281
0
  0
CLASS
  1
ACDBSECTIONVIEWSTYLE
  2
AcDbSectionViewStyle
  3
ObjectDBX Classes
 90
1025
 91
0
280
0
281
0
  0
CLASS
  1
RASTERVARIABLES
  2
AcDbRasterVariables
  3
ISM
 90
0
 91
0
280
0
281
0
  0
CLASS
  1
ACDBPLACEHOLDER
  2
AcDbPlaceHolder
  3
ObjectDBX Classes
 90
0
 91
0
280
0
281
0
  0
CLASS
  1
LAYOUT
  2
AcDbLayout
  3
ObjectDBX Classes
 90
0
 91
0
280
0
281
0
  0
ENDSEC
  0
SECTION
  2
TABLES
  0
TABLE
  2
VPORT
  5
8
330
0
100
AcDbSymbolTable
 70
1
  0
VPORT
  5
23
330
8
100
AcDbSymbolTableRecord
100
AcDbViewportTableRecord
  2
*Active
 70
0
 10
0.0
 20
0.0
 11
1.0
 21
1.0
 12
0.0
 22
0.0
 13
0.0
 23
0.0
 14
0.5
 24
0.5
 15
0.5
 25
0.5
 16
0.0
 26
0.0
 36
1.0
 17
0.0
 27
0.0
 37
0.0
 40
1000.0
 41
1.34
 42
50.0
 43
0.0
 44
0.0
 50
0.0
 51
0.0
 71
0
 72
1000
 73
1
 74
3
 75
0
 76
0
 77
0
 78
0
281
0
 65
0
146
0.0
  0
ENDTAB
  0
TABLE
  2
LTYPE
  5
2
330
0
100
AcDbSymbolTable
 70
3
  0
LTYPE
  5
24
330
2
100
AcDbSymbolTableRecord
100
AcDbLinetypeTableRecord
  2
ByBlock
 70
0
  3

 72
65
 73
0
 40
0.0
  0
LTYPE
  5
25
330
2
100
AcDbSymbolTableRecord
100
AcDbLinetypeTableRecord
  2
ByLayer
 70
0
  3

 72
65
 73
0
 40
0.0
  0
LTYPE
  5
26
330
2
100
AcDbSymbolTableRecord
100
AcDbLinetypeTableRecord
  2
Continuous
 70
0
  3

 72
65
 73
0
 40
0.0
  0
ENDTAB
  0
TABLE
  2
LAYER
  5
1
330
0
100
AcDbSymbolTable
 70
14
  0
LAYER
  5
27
330
1
100
AcDbSymbolTableRecord
100
AcDbLayerTableRecord
  2
0
 70
0
 62
7
  6
Continuous
370
-3
390
13
347
21
  0
LAYER
  5
28
330
1
100
AcDbSymbolTableRecord
100
AcDbLayerTableRecord
  2
Defpoints
 70
0
 62
7
  6
Continuous
290
0
370
-3
390
13
347
21
  0
LAYER
  5
2F
330
1
100
AcDbSymbolTableRecord
100
AcDbLayerTableRecord
  2
图框
 70
0
 62
7
  6
Continuous
370
-3
390
13
347
21
  0
LAYER
  5
30
330
1
100
AcDbSymbolTableRecord
100
AcDbLayerTableRecord
  2
图框线
 70
0
 62
7
  6
Continuous
370
-3
390
13
347
21
  0
LAYER
  5
31
330
1
100
AcDbSymbolTableRecord
100
AcDbLayerTableRecord
  2
指北针
 70
0
 62
7
  6
Continuous
370
-3
390
13
347
21
  0
LAYER
  5
32
330
1
100
AcDbSymbolTableRecord
100
AcDbLayerTableRecord
  2
中心线
 70
0
 62
7
  6
Continuous
370
-3
390
13
347
21
  0
LAYER
  5
33
330
1
100
AcDbSymbolTableRecord
100
AcDbLayerTableRecord
  2
左车道
 70
0
 62
7
  6
Continuous
370
-3
390
13
347
21
  0
LAYER
  5
34
330
1
100
AcDbSymbolTableRecord
100
AcDbLayerTableRecord
  2
右车道
 70
0
 62
7
  6
Continuous
370
-3
390
13
347
21
  0
LAYER
  5
35
330
1
100
AcDbSymbolTableRecord
100
AcDbLayerTableRecord
  2
左路缘
 70
0
 62
7
  6
Continuous
370
-3
390
13
347
21
  0
LAYER
  5
36
330
1
100
AcDbSymbolTableRecord
100
AcDbLayerTableRecord
  2
右路缘
 70
0
 62
7
  6
Continuous
370
-3
390
13
347
21
  0
LAYER
  5
37
330
1
100
AcDbSymbolTableRecord
100
AcDbLayerTableRecord
  2
路线
 70
0
 62
7
  6
Continuous
370
-3
390
13
347
21
  0
LAYER
  5
38
330
1
100
AcDbSymbolTableRecord
100
AcDbLayerTableRecord
  2
关键点
 70
0
 62
7
  6
Continuous
370
-3
390
13
347
21
  0
LAYER
  5
39
330
1
100
AcDbSymbolTableRecord
100
AcDbLayerTableRecord
  2
桩号
 70
0
 62
7
  6
Continuous
370
-3
390
13
347
21
  0
LAYER
  5
3A
330
1
100
AcDbSymbolTableRecord
100
AcDbLayerTableRecord
  2
曲线要素表
 70
0
 62
7
  6
Continuous
370
-3
390
13
347
21
  0
ENDTAB
  0
TABLE
  2
STYLE
  5
5
330
0
100
AcDbSymbolTable
 70
1
  0
STYLE
  5
29
330
5
100
AcDbSymbolTableRecord
100
AcDbTextStyleTableRecord
  2
Standard
 70
0
 40
0.0
 41
1.0
 50
0.0
 71
0
 42
2.5
  3
txt
  4

  0
ENDTAB
  0
TABLE
  2
VIEW
  5
7
330
0
100
AcDbSymbolTable
 70
0
  0
ENDTAB
  0
TABLE
  2
UCS
  5
6
330
0
100
AcDbSymbolTable
 70
0
  0
ENDTAB
  0
TABLE
  2
APPID
  5
3
330
0
100
AcDbSymbolTable
 70
3
  0
APPID
  5
2A
330
3
100
AcDbSymbolTableRecord
100
AcDbRegAppTableRecord
  2
ACAD
 70
0
  0
APPID
  5
BE
330
3
100
AcDbSymbolTableRecord
100
AcDbRegAppTableRecord
  2
HATCHBACKGROUNDCOLOR
 70
0
  0
APPID
  5
BF
330
3
100
AcDbSymbolTableRecord
100
AcDbRegAppTableRecord
  2
EZDXF
 70
0
  0
ENDTAB
  0
TABLE
  2
DIMSTYLE
  5
4
330
0
100
AcDbSymbolTable
 70
1
100
AcDbDimStyleTable
  0
DIMSTYLE
105
2B
330
4
100
AcDbSymbolTableRecord
100
AcDbDimStyleTableRecord
  2
Standard
 70
0
 40
1.0
 41
2.5
 42
0.625
 43
3.75
 44
1.25
 45
0.0
 46
0.0
 47
0.0
 48
0.0
 49
2.5
140
2.5
141
2.5
142
0.0
143
0.03937007874
144
1.0
145
0.0
146
1.0
147
0.625
148
0.0
 69
0
 70
0
 71
0
 72
0
 73
0
 74
0
 75
0
 76
0
 77
1
 78
8
 79
3
170
0
171
3
172
1
173
0
174
0
175
0
176
0
177
0
178
0
179
2
271
2
272
2
273
2
274
3
275
0
276
0
277
2
278
44
279
0
280
0
281
0
282
0
283
0
284
8
285
0
286
0
288
0
289
3
290
0
371
-2
372
-2
  0
ENDTAB
  0
TABLE
  2
BLOCK_RECORD
  5
9
330
0
100
AcDbSymbolTable
 70
2
  0
BLOCK_RECORD
  5
17
330
9
100
AcDbSymbolTableRecord
100
AcDbBlockTableRecord
  2
*Model_Space
340
1A
 70
0
280
1
281
0
  0
BLOCK_RECORD
  5
1B
330
9
100
AcDbSymbolTableRecord
100
AcDbBlockTableRecord
  2
*Paper_Space
340
1E
 70
0
280
1
281
0
  0
ENDTAB
  0
ENDSEC
  0
SECTION
  2
BLOCKS
  0
BLOCK
  5
18
330
17
100
AcDbEntity
  8
0
100
AcDbBlockBegin
  2
*Model_Space
 70
0
 10
0.0
 20
0.0
 30
0.0
  3
*Model_Space
  1

  0
ENDBLK
  5
19
330
17
100
AcDbEntity
  8
0
100
AcDbBlockEnd
  0
BLOCK
  5
1C
330
1B
100
AcDbEntity
  8
0
100
AcDbBlockBegin
  2
*Paper_Space
 70
0
 10
0.0
 20
0.0
 30
0.0
  3
*Paper_Space
  1

  0
ENDBLK
  5
1D
330
1B
100
AcDbEntity
  8
0
100
AcDbBlockEnd
  0
ENDSEC
  0
SECTION
  2
ENTITIES
  0
LWPOLYLINE
  5
3B
330
17
100
AcDbEntity
  8
图框
100
AcDbPolyline
 90
4
 70
1
 10
84609.2954962186
 20
12277.732957099437
 10
84982.94829299416
 20
12277.732957099437
 10
84982.94829299416
 20
11721.643215887121
 10
84609.2954962186
 20
11721.643215887121
  0
LWPOLYLINE
  5
3C
330
17
100
AcDbEntity
  8
图框线
100
AcDbPolyline
 90
4
 70
1
 10
84629.2954962186
 20
12257.732957099437
 10
84962.94829299416
 20
12257.732957099437
 10
84962.94829299416
 20
11741.643215887121
 10
84629.2954962186
 20
11741.643215887121
  0
CIRCLE
  5
3D
330
17
100
AcDbEntity
  8
指北针
100
AcDbCircle
 10
84953.75358158052
 20
12248.53824568579
 30
0.0
 40
19.463140942431057
  0
LINE
  5
3E
330
17
100
AcDbEntity
  8
指北针
100
AcDbLine
 10
84953.75358158052
 20
12229.075104743359
 30
0.0
 11
84953.75358158052
 21
12268.00138662822
 31
0.0
  0
LINE
  5
3F
330
17
100
AcDbEntity
  8
指北针
100
AcDbLine
 10
84944.02201110931
 20
12248.53824568579
 30
0.0
 11
84963.48515205173
 21
12248.53824568579
 31
0.0
  0
TEXT
  5
40
330
17
100
AcDbEntity
  8
指北针
100
AcDbText
 10
84953.75358158052
 20
12260.216130251249
 30
0.0
 40
11.677884565458633
  1
N
 72
1
 11
84953.75358158052
 21
12260.216130251249
 31
0.0
100
AcDbText
  0
LWPOLYLINE
  5
41
330
17
100
AcDbEntity
  8
中心线
100
AcDbPolyline
 90
25
 70
0
 10
84678.76882014325
 20
12221.738769887954
 10
84683.52282579159
 20
12206.318230088043
 10
84690.9817639482
 20
12182.45693217381
 10
84698.68565589494
 20
12158.673731239802
 10
84706.78164252167
 20
12135.021357610076
 10
84709.77341453392
 20
12126.678302092596
 10
84715.40772705917
 20
12111.557371940233
 10
84724.61657200758
 20
12088.315930003235
 10
84734.40351486755
 20
12065.311947781662
 10
84744.76243911839
 20
12042.559802015594
 10
84755.68687076961
 20
12020.07371205552
 10
84767.16998240705
 20
11997.867730975711
 10
84771.95494315747
 20
11988.999338159045
 10
84779.20459745973
 20
11975.955736791504
 10
84791.78319468498
 20
11954.351423786
 10
84804.89791286898
 20
11933.068293951575
 10
84818.54055573979
 20
11912.119648551583
 10
84832.70259708966
 20
11891.518579807487
 10
84847.37518610379
 20
11871.277962716662
 10
84854.16661058109
 20
11862.25833709306
 10
84862.5457713307
 20
11851.407794632712
 10
84878.13972265474
 20
11831.867812877415
 10
84894.03136341578
 20
11812.5689017891
 10
84910.09751609185
 20
11793.414871877934
 10
84917.37827500064
 20
11784.785330050412
  0
LWPOLYLINE
  5
42
330
17
100
AcDbEntity
  8
左车道
100
AcDbPolyline
 90
25
 70
0
 10
84697.88373933308
 20
12227.622634635421
 10
84702.63006817724
 20
12212.22697686007
 10
84710.0462152592
 20
12188.502318531295
 10
84717.66733203833
 20
12164.974205094002
 10
84725.63579656485
 20
12141.693754129798
 10
84728.57037438001
 20
12133.51016132304
 10
84734.09200065475
 20
12118.691649773726
 10
84743.1166687042
 20
12095.915036675467
 10
84752.70787270696
 20
12073.371134098325
 10
84762.8596184728
 20
12051.07403124758
 10
84773.56556149099
 20
12029.037663086707
 10
84784.81901089568
 20
12007.275801628493
 10
84789.50827243109
 20
11998.58477666816
 10
84796.6129336473
 20
11985.80204732797
 10
84808.93995892804
 20
11964.629820582577
 10
84821.79238274836
 20
11943.77235334484
 10
84835.16217276176
 20
11923.242680852847
 10
84849.04097328463
 20
11903.053633483634
 10
84863.42011051848
 20
11883.217828734625
 10
84870.07570650624
 20
11874.378595623497
 10
84878.29880315145
 20
11863.730212757984
 10
84893.66276717374
 20
11844.478724377434
 10
84909.39943338564
 20
11825.368215262937
 10
84925.38918874135
 20
11806.305362465198
 10
84932.66172824582
 20
11797.685564811925
  0
LWPOLYLINE
  5
43
330
17
100
AcDbEntity
  8
右车道
100
AcDbPolyline
 90
25
 70
0
 10
84659.65390095342
 20
12215.854905140488
 10
84664.41558340593
 20
12200.409483316016
 10
84671.91731263722
 20
12176.411545816327
 10
84679.70397975155
 20
12152.373257385601
 10
84687.9274884785
 20
12128.348961090354
 10
84690.97645468783
 20
12119.846442862152
 10
84696.72345346358
 20
12104.42309410674
 10
84706.11647531096
 20
12080.716823331002
 10
84716.09915702813
 20
12057.252761464999
 10
84726.66525976399
 20
12034.045572783609
 10
84737.80818004823
 20
12011.109761024334
 10
84749.52095391843
 20
11988.45966032293
 10
84754.40161388385
 20
11979.41389964993
 10
84761.79626127216
 20
11966.109426255038
 10
84774.62643044192
 20
11944.073026989423
 10
84788.0034429896
 20
11922.36423455831
 10
84801.91893871782
 20
11900.996616250319
 10
84816.3642208947
 20
11879.98352613134
 10
84831.3302616891
 20
11859.338096698699
 10
84838.25751465594
 20
11850.138078562624
 10
84846.79273950994
 20
11839.08537650744
 10
84862.61667813575
 20
11819.256901377397
 10
84878.66329344592
 20
11799.769588315263
 10
84894.80584344234
 20
11780.52438129067
 10
84902.09482175545
 20
11771.885095288899
  0
LWPOLYLINE
  5
44
330
17
100
AcDbEntity
  8
左路缘
100
AcDbPolyline
 90
25
 70
0
 10
84698.24214406789
 20
12227.732957099437
 10
84702.98832897197
 20
12212.337765862047
 10
84710.40367372127
 20
12188.615669525498
 10
84718.02323846602
 20
12165.092338978768
 10
84725.98931195316
 20
12141.818861564543
 10
84728.92281737713
 20
12133.638258683612
 10
84734.44233078467
 20
12118.825417483104
 10
84743.46354551725
 20
12096.057519925573
 10
84753.05107941644
 20
12073.522243841762
 10
84763.19894058569
 20
12051.23367304568
 10
84773.90078694202
 20
12029.205737168542
 10
84785.14993017983
 20
12007.452202953233
 10
84789.83739735498
 20
11998.764503640206
 10
84796.93933995081
 20
11985.98666565053
 10
84809.2616482576
 20
11964.822540522513
 10
84822.1091540586
 20
11943.973054458464
 10
84835.47382808093
 20
11923.451237708496
 10
84849.34731783828
 20
11903.269915740062
 10
84863.72095285125
 20
11883.441701222462
 10
84870.37400205483
 20
11874.605850470942
 10
84878.5941724981
 20
11863.961258097834
 10
84893.95382425847
 20
11844.71517896806
 10
84909.68758469757
 20
11825.608202390571
 10
84925.67590760352
 20
11806.54705916371
 10
84932.94829299416
 20
11797.927444213703
  0
LWPOLYLINE
  5
45
330
17
100
AcDbEntity
  8
右路缘
100
AcDbPolyline
 90
25
 70
0
 10
84659.2954962186
 20
12215.744582676472
 10
84664.0573226112
 20
12200.29869431404
 10
84671.55985417514
 20
12176.298194822124
 10
84679.34807332385
 20
12152.255123500836
 10
84687.57397309018
 20
12128.223853655609
 10
84690.62401169071
 20
12119.71834550158
 10
84696.37312333366
 20
12104.289326397362
 10
84705.76959849791
 20
12080.574340080897
 10
84715.75595031865
 20
12057.101651721561
 10
84726.3259376511
 20
12033.885930985509
 10
84737.47295459721
 20
12010.941686942499
 10
84749.19003463427
 20
11988.28325899819
 10
84754.07248895997
 20
11979.234172677883
 10
84761.46985496864
 20
11965.924807932479
 10
84774.30474111236
 20
11943.880307049487
 10
84787.68667167936
 20
11922.163533444687
 10
84801.60728339865
 20
11900.78805939467
 10
84816.05787634104
 20
11879.767243874912
 10
84831.02941935633
 20
11859.114224210862
 10
84837.95921910735
 20
11849.91082371518
 10
84846.4973701633
 20
11838.854331167591
 10
84862.32562105102
 20
11819.020446786772
 10
84878.37514213398
 20
11799.529601187629
 10
84894.51912458017
 20
11780.282684592159
 10
84901.80825700711
 20
11771.643215887121
  0
LWPOLYLINE
  5
46
330
17
100
AcDbEntity
  8
路线
100
AcDbPolyline
 90
5
 70
0
 10
84678.76882014325
 20
12221.738769887954
 10
84709.77341453392
 20
12126.678302092596
 10
84771.95494315747
 20
11988.999338159045
 10
84854.16661058109
 20
11862.25833709306
 10
84917.37827500064
 20
11784.785330050412
  0
CIRCLE
  5
47
330
17
100
AcDbEntity
  8
关键点
100
AcDbCircle
 10
84678.76882014325
 20
12221.738769887954
 30
0.0
 40
1.2
  0
LINE
  5
48
330
17
100
AcDbEntity
  8
关键点
100
AcDbLine
 10
84678.76882014325
 20
12221.738769887954
 30
0.0
 11
84677.00366071901
 21
12216.004294131006
 31
0.0
  0
TEXT
  5
49
330
17
100
AcDbEntity
  8
关键点
100
AcDbText
 10
84677.00366071901
 20
12216.004294131006
 30
0.0
 40
3.5
  1
ZH
 11
84677.00366071901
 21
12216.004294131006
 31
0.0
100
AcDbText
 73
1
  0
TEXT
  5
4A
330
17
100
AcDbEntity
  8
关键点
100
AcDbText
 10
84677.00366071901
 20
12212.004294131006
 30
0.0
 40
3.5
  1
K1+208.863
 11
84677.00366071901
 21
12212.004294131006
 31
0.0
100
AcDbText
 73
3
  0
CIRCLE
  5
4B
330
17
100
AcDbEntity
  8
关键点
100
AcDbCircle
 10
84709.77341453392
 20
12126.678302092596
 30
0.0
 40
1.2
  0
LINE
  5
4C
330
17
100
AcDbEntity
  8
关键点
100
AcDbLine
 10
84709.77341453392
 20
12126.678302092596
 30
0.0
 11
84707.72385676479
 21
12121.03921413877
 31
0.0
  0
TEXT
  5
4D
330
17
100
AcDbEntity
  8
关键点
100
AcDbText
 10
84707.72385676479
 20
12121.03921413877
 30
0.0
 40
3.5
  1
HY
 11
84707.72385676479
 21
12121.03921413877
 31
0.0
100
AcDbText
 73
1
  0
TEXT
  5
4E
330
17
100
AcDbEntity
  8
关键点
100
AcDbText
 10
84707.72385676479
 20
12117.03921413877
 30
0.0
 40
3.5
  1
K1+308.863
 11
84707.72385676479
 21
12117.03921413877
 31
0.0
100
AcDbText
 73
3
  0
CIRCLE
  5
4F
330
17
100
AcDbEntity
  8
关键点
100
AcDbCircle
 10
84771.95494315747
 20
11988.999338159045
 30
0.0
 40
1.2
  0
LINE
  5
50
330
17
100
AcDbEntity
  8
关键点
100
AcDbLine
 10
84771.95494315747
 20
11988.999338159045
 30
0.0
 11
84769.07931160474
 21
11983.73333937696
 31
0.0
  0
TEXT
  5
51
330
17
100
AcDbEntity
  8
关键点
100
AcDbText
 10
84769.07931160474
 20
11983.73333937696
 30
0.0
 40
3.5
  1
QZ
 11
84769.07931160474
 21
11983.73333937696
 31
0.0
100
AcDbText
 73
1
  0
TEXT
  5
52
330
17
100
AcDbEntity
  8
关键点
100
AcDbText
 10
84769.07931160474
 20
11979.73333937696
 30
0.0
 40
3.5
  1
K1+460.077
 11
84769.07931160474
 21
11979.73333937696
 31
0.0
100
AcDbText
 73
3
  0
CIRCLE
  5
53
330
17
100
AcDbEntity
  8
关键点
100
AcDbCircle
 10
84854.16661058109
 20
11862.25833709306
 30
0.0
 40
1.2
  0
LINE
  5
54
330
17
100
AcDbEntity
  8
关键点
100
AcDbLine
 10
84854.16661058109
 20
11862.25833709306
 30
0.0
 11
84850.53053302196
 21
11857.485608315517
 31
0.0
  0
TEXT
  5
55
330
17
100
AcDbEntity
  8
关键点
100
AcDbText
 10
84850.53053302196
 20
11857.485608315517
 30
0.0
 40
3.5
  1
YH
 11
84850.53053302196
 21
11857.485608315517
 31
0.0
100
AcDbText
 73
1
  0
TEXT
  5
56
330
17
100
AcDbEntity
  8
关键点
100
AcDbText
 10
84850.53053302196
 20
11853.485608315517
 30
0.0
 40
3.5
  1
K1+611.291
 11
84850.53053302196
 21
11853.485608315517
 31
0.0
100
AcDbText
 73
3
  0
CIRCLE
  5
57
330
17
100
AcDbEntity
  8
关键点
100
AcDbCircle
 10
84917.37827500064
 20
11784.785330050412
 30
0.0
 40
1.2
  0
LINE
  5
58
330
17
100
AcDbEntity
  8
关键点
100
AcDbLine
 10
84917.37827500064
 20
11784.785330050412
 30
0.0
 11
84913.50820457218
 21
11780.200294076856
 31
0.0
  0
TEXT
  5
59
330
17
100
AcDbEntity
  8
关键点
100
AcDbText
 10
84913.50820457218
 20
11780.200294076856
 30
0.0
 40
3.5
  1
HZ
 11
84913.50820457218
 21
11780.200294076856
 31
0.0
100
AcDbText
 73
1
  0
TEXT
  5
5A
330
17
100
AcDbEntity
  8
关键点
100
AcDbText
 10
84913.50820457218
 20
11776.200294076856
 30
0.0
 40
3.5
  1
K1+711.291
 11
84913.50820457218
 21
11776.200294076856
 31
0.0
100
AcDbText
 73
3
  0
LINE
  5
5B
330
17
100
AcDbEntity
  8
桩号
100
AcDbLine
 10
84679.35720661799
 20
12223.650261806937
 30
0.0
 11
84678.1804336685
 21
12219.82727796897
 31
0.0
  0
TEXT
  5
5C
330
17
100
AcDbEntity
  8
桩号
100
AcDbText
 10
84676.70946748163
 20
12215.048548171515
 30
0.0
 40
3.0
  1
K1+208.863
 72
1
 11
84676.70946748163
 21
12215.048548171515
 31
0.0
100
AcDbText
  0
LINE
  5
5D
330
17
100
AcDbEntity
  8
桩号
100
AcDbLine
 10
84684.11370046879
 20
12208.228954326609
 30
0.0
 11
84682.93195111438
 21
12204.407505849478
 31
0.0
  0
TEXT
  5
5E
330
17
100
AcDbEntity
  8
桩号
100
AcDbText
 10
84681.45476442137
 20
12199.630695253065
 30
0.0
 40
3.0
  1
K1+225.000
 72
1
 11
84681.45476442137
 21
12199.630695253065
 31
0.0
100
AcDbText
  0
LINE
  5
5F
330
17
100
AcDbEntity
  8
桩号
100
AcDbLine
 10
84691.58630258395
 20
12184.36337730491
 30
0.0
 11
84690.37722531246
 21
12180.550487042712
 31
0.0
  0
TEXT
  5
60
330
17
100
AcDbEntity
  8
桩号
100
AcDbText
 10
84688.86587872308
 20
12175.784374214967
 30
0.0
 40
3.0
  1
K1+250.000
 72
1
 11
84688.86587872308
 21
12175.784374214967
 31
0.0
100
AcDbText
  0
LINE
  5
61
330
17
100
AcDbEntity
  8
桩号
100
AcDbLine
 10
84699.31570328036
 20
12160.571898854141
 30
0.0
 11
84698.05560850952
 21
12156.775563625462
 31
0.0
  0
TEXT
  5
62
330
17
100
AcDbEntity
  8
桩号
100
AcDbText
 10
84696.48049004597
 20
12152.030144589615
 30
0.0
 40
3.0
  1
K1+275.000
 72
1
 11
84696.48049004597
 21
12152.030144589615
 31
0.0
100
AcDbText
  0
LINE
  5
63
330
17
100
AcDbEntity
  8
桩号
100
AcDbLine
 10
84707.44888217364
 20
12136.906773014392
 30
0.0
 11
84706.1144028697
 21
12133.13594220576
 31
0.0
  0
TEXT
  5
64
330
17
100
AcDbEntity
  8
桩号
100
AcDbText
 10
84704.44630373977
 20
12128.422403694965
 30
0.0
 40
3.0
  1
K1+300.000
 72
1
 11
84704.44630373977
 21
12128.422403694965
 31
0.0
100
AcDbText
  0
LINE
  5
65
330
17
100
AcDbEntity
  8
桩号
100
AcDbLine
 10
84710.45660045696
 20
12128.557998077205
 30
0.0
 11
84709.09022861088
 21
12124.798606107986
 31
0.0
  0
TEXT
  5
66
330
17
100
AcDbEntity
  8
桩号
100
AcDbText
 10
84707.38226380326
 20
12120.099366146465
 30
0.0
 40
3.0
  1
K1+308.863
 72
1
 11
84707.38226380326
 21
12120.099366146465
 31
0.0
100
AcDbText
  0
LINE
  5
67
330
17
100
AcDbEntity
  8
桩号
100
AcDbLine
 10
84716.12115484252
 20
12113.42579929979
 30
0.0
 11
84714.69429927581
 21
12109.688944580676
 31
0.0
  0
TEXT
  5
68
330
17
100
AcDbEntity
  8
桩号
100
AcDbText
 10
84712.91072981745
 20
12105.017876181779
 30
0.0
 40
3.0
  1
K1+325.000
 72
1
 11
84712.91072981745
 21
12105.017876181779
 31
0.0
100
AcDbText
  0
LINE
  5
69
330
17
100
AcDbEntity
  8
桩号
100
AcDbLine
 10
84725.37648267481
 20
12090.165939672896
 30
0.0
 11
84723.85666134035
 21
12086.465920333574
 31
0.0
  0
TEXT
  5
6A
330
17
100
AcDbEntity
  8
桩号
100
AcDbText
 10
84721.9568846723
 20
12081.84089615942
 30
0.0
 40
3.0
  1
K1+350.000
 72
1
 11
84721.9568846723
 21
12081.84089615942
 31
0.0
100
AcDbText
  0
LINE
  5
6B
330
17
100
AcDbEntity
  8
桩号
100
AcDbLine
 10
84735.20943349921
 20
12067.142383565602
 30
0.0
 11
84733.59759623588
 21
12063.481511997721
 31
0.0
  0
TEXT
  5
6C
330
17
100
AcDbEntity
  8
桩号
100
AcDbText
 10
84731.58279965671
 20
12058.905422537868
 30
0.0
 40
3.0
  1
K1+375.000
 72
1
 11
84731.58279965671
 21
12058.905422537868
 31
0.0
100
AcDbText
  0
LINE
  5
6D
330
17
100
AcDbEntity
  8
桩号
100
AcDbLine
 10
84745.61386204159
 20
12044.369519951033
 30
0.0
 11
84743.9110161952
 21
12040.750084080155
 31
0.0
  0
TEXT
  5
6E
330
17
100
AcDbEntity
  8
桩号
100
AcDbText
 10
84741.7824588872
 20
12036.225789241555
 30
0.0
 40
3.0
  1
K1+400.000
 72
1
 11
84741.7824588872
 21
12036.225789241555
 31
0.0
100
AcDbText
  0
LINE
  5
6F
330
17
100
AcDbEntity
  8
桩号
100
AcDbLine
 10
84756.58326587273
 20
12021.861581127658
 30
0.0
 11
84754.7904756665
 21
12018.285842983383
 31
0.0
  0
TEXT
  5
70
330
17
100
AcDbEntity
  8
桩号
100
AcDbText
 10
84752.54948790869
 20
12013.81617030304
 30
0.0
 40
3.0
  1
K1+425.000
 72
1
 11
84752.54948790869
 21
12013.81617030304
 31
0.0
100
AcDbText
  0
LINE
  5
71
330
17
100
AcDbEntity
  8
桩号
100
AcDbLine
 10
84768.11078947232
 20
11999.632633824574
 30
0.0
 11
84766.22917534178
 21
11996.102828126848
 31
0.0
  0
TEXT
  5
72
330
17
100
AcDbEntity
  8
桩号
100
AcDbText
 10
84763.87715767858
 20
11991.690571004692
 30
0.0
 40
3.0
  1
K1+450.000
 72
1
 11
84763.87715767858
 21
11991.690571004692
 31
0.0
100
AcDbText
  0
LINE
  5
73
330
17
100
AcDbEntity
  8
桩号
100
AcDbLine
 10
84772.91348700838
 20
11990.754671086406
 30
0.0
 11
84770.99639930656
 21
11987.244005231683
 31
0.0
  0
TEXT
  5
74
330
17
100
AcDbEntity
  8
桩号
100
AcDbText
 10
84768.60003967928
 20
11982.85567291328
 30
0.0
 40
3.0
  1
K1+460.077
 72
1
 11
84768.60003967928
 21
11982.85567291328
 31
0.0
100
AcDbText
  0
LINE
  5
75
330
17
100
AcDbEntity
  8
桩号
100
AcDbLine
 10
84780.18922851338
 20
11977.69657041026
 30
0.0
 11
84778.21996640608
 21
11974.214903172748
 31
0.0
  0
TEXT
  5
76
330
17
100
AcDbEntity
  8
桩号
100
AcDbText
 10
84775.75838877197
 20
11969.862819125854
 30
0.0
 40
3.0
  1
K1+475.000
 72
1
 11
84775.75838877197
 21
11969.862819125854
 31
0.0
100
AcDbText
  0
LINE
  5
77
330
17
100
AcDbEntity
  8
桩号
100
AcDbLine
 10
84792.81103436464
 20
11956.067100210306
 30
0.0
 11
84790.75535500531
 21
11952.635747361694
 31
0.0
  0
TEXT
  5
78
330
17
100
AcDbEntity
  8
桩号
100
AcDbText
 10
84788.18575580617
 20
11948.346556300927
 30
0.0
 40
3.0
  1
K1+500.000
 72
1
 11
84788.18575580617
 21
11948.346556300927
 31
0.0
100
AcDbText
  0
LINE
  5
79
330
17
100
AcDbEntity
  8
桩号
100
AcDbLine
 10
84805.96831880831
 20
11934.757740939514
 30
0.0
 11
84803.82750692965
 21
11931.378846963637
 31
0.0
  0
TEXT
  5
7A
330
17
100
AcDbEntity
  8
桩号
100
AcDbText
 10
84801.15149208134
 20
11927.15522949379
 30
0.0
 40
3.0
  1
K1+525.000
 72
1
 11
84801.15149208134
 21
11927.15522949379
 31
0.0
100
AcDbText
  0
LINE
  5
7B
330
17
100
AcDbEntity
  8
桩号
100
AcDbLine
 10
84819.65285896992
 20
11913.78181025378
 30
0.0
 11
84817.42825250966
 21
11910.457486849386
 31
0.0
  0
TEXT
  5
7C
330
17
100
AcDbEntity
  8
桩号
100
AcDbText
 10
84814.64749443435
 20
11906.302082593893
 30
0.0
 40
3.0
  1
K1+550.000
 72
1
 11
84814.64749443435
 21
11906.302082593893
 31
0.0
100
AcDbText
  0
LINE
  5
7D
330
17
100
AcDbEntity
  8
桩号
100
AcDbLine
 10
84833.85610245728
 20
11893.152417426983
 30
0.0
 11
84831.54909172204
 21
11889.884742187991
 31
0.0
  0
TEXT
  5
7E
330
17
100
AcDbEntity
  8
桩号
100
AcDbText
 10
84828.66532830302
 20
11885.800148139248
 30
0.0
 40
3.0
  1
K1+575.000
 72
1
 11
84828.66532830302
 21
11885.800148139248
 31
0.0
100
AcDbText
  0
LINE
  5
7F
330
17
100
AcDbEntity
  8
桩号
100
AcDbLine
 10
84848.56917270558
 20
11872.882455158131
 30
0.0
 11
84846.181199502
 21
11869.673470275193
 31
0.0
  0
TEXT
  5
80
330
17
100
AcDbEntity
  8
桩号
100
AcDbText
 10
84843.1962329975
 20
11865.662239171521
 30
0.0
 40
3.0
  1
K1+600.000
 72
1
 11
84843.1962329975
 21
11865.662239171521
 31
0.0
100
AcDbText
  0
LINE
  5
81
330
17
100
AcDbEntity
  8
桩号
100
AcDbLine
 10
84855.37863643414
 20
11863.849246685575
 30
0.0
 11
84852.95458472804
 21
11860.667427500546
 31
0.0
  0
TEXT
  5
82
330
17
100
AcDbEntity
  8
桩号
100
AcDbText
 10
84849.92452009543
 20
11856.690153519261
 30
0.0
 40
3.0
  1
K1+611.291
 72
1
 11
84849.92452009543
 21
11856.690153519261
 31
0.0
100
AcDbText
  0
LINE
  5
83
330
17
100
AcDbEntity
  8
桩号
100
AcDbLine
 10
84863.77801314322
 20
11852.98309781479
 30
0.0
 11
84861.31352951817
 21
11849.832491450636
 31
0.0
  0
TEXT
  5
84
330
17
100
AcDbEntity
  8
桩号
100
AcDbText
 10
84858.23292498685
 20
11845.894233495446
 30
0.0
 40
3.0
  1
K1+625.000
 72
1
 11
84858.23292498685
 21
11845.894233495446
 31
0.0
100
AcDbText
  0
LINE
  5
85
330
17
100
AcDbEntity
  8
桩号
100
AcDbLine
 10
84879.40081380475
 20
11833.420117329315
 30
0.0
 11
84876.87863150473
 21
11830.315508425516
 31
0.0
  0
TEXT
  5
86
330
17
100
AcDbEntity
  8
桩号
100
AcDbText
 10
84873.72590362973
 20
11826.434747295767
 30
0.0
 40
3.0
  1
K1+650.000
 72
1
 11
84873.72590362973
 21
11826.434747295767
 31
0.0
100
AcDbText
  0
LINE
  5
87
330
17
100
AcDbEntity
  8
桩号
100
AcDbLine
 10
84895.31129476316
 20
11814.105708786086
 30
0.0
 11
84892.7514320684
 21
11811.032094792114
 31
0.0
  0
TEXT
  5
88
330
17
100
AcDbEntity
  8
桩号
100
AcDbText
 10
84889.55160369993
 20
11807.19007729965
 30
0.0
 40
3.0
  1
K1+675.000
 72
1
 11
84889.55160369993
 21
11807.19007729965
 31
0.0
100
AcDbText
  0
LINE
  5
89
330
17
100
AcDbEntity
  8
桩号
100
AcDbLine
 10
84911.38656515058
 20
11794.944039142885
 30
0.0
 11
84908.80846703312
 21
11791.885704612983
 31
0.0
  0
TEXT
  5
8A
330
17
100
AcDbEntity
  8
桩号
100
AcDbText
 10
84905.5858443863
 20
11788.062786450608
 30
0.0
 40
3.0
  1
K1+700.000
 72
1
 11
84905.5858443863
 21
11788.062786450608
 31
0.0
100
AcDbText
  0
LINE
  5
8B
330
17
100
AcDbEntity
  8
桩号
100
AcDbLine
 10
84918.66829847678
 20
11786.313675374931
 30
0.0
 11
84916.08825152449
 21
11783.256984725893
 31
0.0
  0
TEXT
  5
8C
330
17
100
AcDbEntity
  8
桩号
100
AcDbText
 10
84912.8631928341
 20
11779.436121414596
 30
0.0
 40
3.0
  1
K1+711.291
 72
1
 11
84912.8631928341
 21
11779.436121414596
 31
0.0
100
AcDbText
  0
TEXT
  5
8D
330
17
100
AcDbEntity
  8
曲线要素表
100
AcDbText
 10
84660.2954962186
 20
11817.643215887121
 30
0.0
 40
3.0
  1
点名
 72
1
 11
84660.2954962186
 21
11817.643215887121
 31
0.0
100
AcDbText
 73
2
  0
TEXT
  5
8E
330
17
100
AcDbEntity
  8
曲线要素表
100
AcDbText
 10
84692.2954962186
 20
11817.643215887121
 30
0.0
 40
3.0
  1
桩号
 72
1
 11
84692.2954962186
 21
11817.643215887121
 31
0.0
100
AcDbText
 73
2
  0
TEXT
  5
8F
330
17
100
AcDbEntity
  8
曲线要素表
100
AcDbText
 10
84733.2954962186
 20
11817.643215887121
 30
0.0
 40
3.0
  1
坐标X
 72
1
 11
84733.2954962186
 21
11817.643215887121
 31
0.0
100
AcDbText
 73
2
  0
TEXT
  5
90
330
17
100
AcDbEntity
  8
曲线要素表
100
AcDbText
 10
84773.2954962186
 20
11817.643215887121
 30
0.0
 40
3.0
  1
坐标Y
 72
1
 11
84773.2954962186
 21
11817.643215887121
 31
0.0
100
AcDbText
 73
2
  0
TEXT
  5
91
330
17
100
AcDbEntity
  8
曲线要素表
100
AcDbText
 10
84817.2954962186
 20
11817.643215887121
 30
0.0
 40
3.0
  1
方位角
 72
1
 11
84817.2954962186
 21
11817.643215887121
 31
0.0
100
AcDbText
 73
2
  0
TEXT
  5
92
330
17
100
AcDbEntity
  8
曲线要素表
100
AcDbText
 10
84855.2954962186
 20
11817.643215887121
 30
0.0
 40
3.0
  1
R(m)
 72
1
 11
84855.2954962186
 21
11817.643215887121
 31
0.0
100
AcDbText
 73
2
  0
LINE
  5
93
330
17
100
AcDbEntity
  8
曲线要素表
100
AcDbLine
 10
84649.2954962186
 20
11813.643215887121
 30
0.0
 11
84869.2954962186
 21
11813.643215887121
 31
0.0
  0
TEXT
  5
94
330
17
100
AcDbEntity
  8
曲线要素表
100
AcDbText
 10
84660.2954962186
 20
11809.643215887121
 30
0.0
 40
3.0
  1
ZH
 72
1
 11
84660.2954962186
 21
11809.643215887121
 31
0.0
100
AcDbText
 73
2
  0
TEXT
  5
95
330
17
100
AcDbEntity
  8
曲线要素表
100
AcDbText
 10
84692.2954962186
 20
11809.643215887121
 30
0.0
 40
3.0
  1
K1+208.863
 72
1
 11
84692.2954962186
 21
11809.643215887121
 31
0.0
100
AcDbText
 73
2
  0
TEXT
  5
96
330
17
100
AcDbEntity
  8
曲线要素表
100
AcDbText
 10
84733.2954962186
 20
11809.643215887121
 30
0.0
 40
3.0
  1
84678.769
 72
1
 11
84733.2954962186
 21
11809.643215887121
 31
0.0
100
AcDbText
 73
2
  0
TEXT
  5
97
330
17
100
AcDbEntity
  8
曲线要素表
100
AcDbText
 10
84773.2954962186
 20
11809.643215887121
 30
0.0
 40
3.0
  1
12221.739
 72
1
 11
84773.2954962186
 21
11809.643215887121
 31
0.0
100
AcDbText
 73
2
  0
TEXT
  5
98
330
17
100
AcDbEntity
  8
曲线要素表
100
AcDbText
 10
84817.2954962186
 20
11809.643215887121
 30
0.0
 40
3.0
  1
287.06330
 72
1
 11
84817.2954962186
 21
11809.643215887121
 31
0.0
100
AcDbText
 73
2
  0
TEXT
  5
99
330
17
100
AcDbEntity
  8
曲线要素表
100
AcDbText
 10
84855.2954962186
 20
11809.643215887121
 30
0.0
 40
3.0
  1
1000.000
 72
1
 11
84855.2954962186
 21
11809.643215887121
 31
0.0
100
AcDbText
 73
2
  0
LINE
  5
9A
330
17
100
AcDbEntity
  8
曲线要素表
100
AcDbLine
 10
84649.2954962186
 20
11805.643215887121
 30
0.0
 11
84869.2954962186
 21
11805.643215887121
 31
0.0
  0
TEXT
  5
9B
330
17
100
AcDbEntity
  8
曲线要素表
100
AcDbText
 10
84660.2954962186
 20
11801.643215887121
 30
0.0
 40
3.0
  1
HY
 72
1
 11
84660.2954962186
 21
11801.643215887121
 31
0.0
100
AcDbText
 73
2
  0
TEXT
  5
9C
330
17
100
AcDbEntity
  8
曲线要素表
100
AcDbText
 10
84692.2954962186
 20
11801.643215887121
 30
0.0
 40
3.0
  1
K1+308.863
 72
1
 11
84692.2954962186
 21
11801.643215887121
 31
0.0
100
AcDbText
 73
2
  0
TEXT
  5
9D
330
17
100
AcDbEntity
  8
曲线要素表
100
AcDbText
 10
84733.2954962186
 20
11801.643215887121
 30
0.0
 40
3.0
  1
84709.773
 72
1
 11
84733.2954962186
 21
11801.643215887121
 31
0.0
100
AcDbText
 73
2
  0
TEXT
  5
9E
330
17
100
AcDbEntity
  8
曲线要素表
100
AcDbText
 10
84773.2954962186
 20
11801.643215887121
 30
0.0
 40
3.0
  1
12126.678
 72
1
 11
84773.2954962186
 21
11801.643215887121
 31
0.0
100
AcDbText
 73
2
  0
TEXT
  5
9F
330
17
100
AcDbEntity
  8
曲线要素表
100
AcDbText
 10
84817.2954962186
 20
11801.643215887121
 30
0.0
 40
3.0
  1
289.58262
 72
1
 11
84817.2954962186
 21
11801.643215887121
 31
0.0
100
AcDbText
 73
2
  0
TEXT
  5
A0
330
17
100
AcDbEntity
  8
曲线要素表
100
AcDbText
 10
84855.2954962186
 20
11801.643215887121
 30
0.0
 40
3.0
  1
1000.000
 72
1
 11
84855.2954962186
 21
11801.643215887121
 31
0.0
100
AcDbText
 73
2
  0
LINE
  5
A1
330
17
100
AcDbEntity
  8
曲线要素表
100
AcDbLine
 10
84649.2954962186
 20
11797.643215887121
 30
0.0
 11
84869.2954962186
 21
11797.643215887121
 31
0.0
  0
TEXT
  5
A2
330
17
100
AcDbEntity
  8
曲线要素表
100
AcDbText
 10
84660.2954962186
 20
11793.643215887121
 30
0.0
 40
3.0
  1
QZ
 72
1
 11
84660.2954962186
 21
11793.643215887121
 31
0.0
100
AcDbText
 73
2
  0
TEXT
  5
A3
330
17
100
AcDbEntity
  8
曲线要素表
100
AcDbText
 10
84692.2954962186
 20
11793.643215887121
 30
0.0
 40
3.0
  1
K1+460.077
 72
1
 11
84692.2954962186
 21
11793.643215887121
 31
0.0
100
AcDbText
 73
2
  0
TEXT
  5
A4
330
17
100
AcDbEntity
  8
曲线要素表
100
AcDbText
 10
84733.2954962186
 20
11793.643215887121
 30
0.0
 40
3.0
  1
84771.955
 72
1
 11
84733.2954962186
 21
11793.643215887121
 31
0.0
100
AcDbText
 73
2
  0
TEXT
  5
A5
330
17
100
AcDbEntity
  8
曲线要素表
100
AcDbText
 10
84773.2954962186
 20
11793.643215887121
 30
0.0
 40
3.0
  1
11988.999
 72
1
 11
84773.2954962186
 21
11793.643215887121
 31
0.0
100
AcDbText
 73
2
  0
TEXT
  5
A6
330
17
100
AcDbEntity
  8
曲线要素表
100
AcDbText
 10
84817.2954962186
 20
11793.643215887121
 30
0.0
 40
3.0
  1
298.38163
 72
1
 11
84817.2954962186
 21
11793.643215887121
 31
0.0
100
AcDbText
 73
2
  0
TEXT
  5
A7
330
17
100
AcDbEntity
  8
曲线要素表
100
AcDbText
 10
84855.2954962186
 20
11793.643215887121
 30
0.0
 40
3.0
  1
1000.000
 72
1
 11
84855.2954962186
 21
11793.643215887121
 31
0.0
100
AcDbText
 73
2
  0
LINE
  5
A8
330
17
100
AcDbEntity
  8
曲线要素表
100
AcDbLine
 10
84649.2954962186
 20
11789.643215887121
 30
0.0
 11
84869.2954962186
 21
11789.643215887121
 31
0.0
  0
TEXT
  5
A9
330
17
100
AcDbEntity
  8
曲线要素表
100
AcDbText
 10
84660.2954962186
 20
11785.643215887121
 30
0.0
 40
3.0
  1
YH
 72
1
 11
84660.2954962186
 21
11785.643215887121
 31
0.0
100
AcDbText
 73
2
  0
TEXT
  5
AA
330
17
100
AcDbEntity
  8
曲线要素表
100
AcDbText
 10
84692.2954962186
 20
11785.643215887121
 30
0.0
 40
3.0
  1
K1+611.291
 72
1
 11
84692.2954962186
 21
11785.643215887121
 31
0.0
100
AcDbText
 73
2
  0
TEXT
  5
AB
330
17
100
AcDbEntity
  8
曲线要素表
100
AcDbText
 10
84733.2954962186
 20
11785.643215887121
 30
0.0
 40
3.0
  1
84854.167
 72
1
 11
84733.2954962186
 21
11785.643215887121
 31
0.0
100
AcDbText
 73
2
  0
TEXT
  5
AC
330
17
100
AcDbEntity
  8
曲线要素表
100
AcDbText
 10
84773.2954962186
 20
11785.643215887121
 30
0.0
 40
3.0
  1
11862.258
 72
1
 11
84773.2954962186
 21
11785.643215887121
 31
0.0
100
AcDbText
 73
2
  0
TEXT
  5
AD
330
17
100
AcDbEntity
  8
曲线要素表
100
AcDbText
 10
84817.2954962186
 20
11785.643215887121
 30
0.0
 40
3.0
  1
307.18064
 72
1
 11
84817.2954962186
 21
11785.643215887121
 31
0.0
100
AcDbText
 73
2
  0
TEXT
  5
AE
330
17
100
AcDbEntity
  8
曲线要素表
100
AcDbText
 10
84855.2954962186
 20
11785.643215887121
 30
0.0
 40
3.0
  1
1000.000
 72
1
 11
84855.2954962186
 21
11785.643215887121
 31
0.0
100
AcDbText
 73
2
  0
LINE
  5
AF
330
17
100
AcDbEntity
  8
曲线要素表
100
AcDbLine
 10
84649.2954962186
 20
11781.643215887121
 30
0.0
 11
84869.2954962186
 21
11781.643215887121
 31
0.0
  0
TEXT
  5
B0
330
17
100
AcDbEntity
  8
曲线要素表
100
AcDbText
 10
84660.2954962186
 20
11777.643215887121
 30
0.0
 40
3.0
  1
HZ
 72
1
 11
84660.2954962186
 21
11777.643215887121
 31
0.0
100
AcDbText
 73
2
  0
TEXT
  5
B1
330
17
100
AcDbEntity
  8
曲线要素表
100
AcDbText
 10
84692.2954962186
 20
11777.643215887121
 30
0.0
 40
3.0
  1
K1+711.291
 72
1
 11
84692.2954962186
 21
11777.643215887121
 31
0.0
100
AcDbText
 73
2
  0
TEXT
  5
B2
330
17
100
AcDbEntity
  8
曲线要素表
100
AcDbText
 10
84733.2954962186
 20
11777.643215887121
 30
0.0
 40
3.0
  1
84917.378
 72
1
 11
84733.2954962186
 21
11777.643215887121
 31
0.0
100
AcDbText
 73
2
  0
TEXT
  5
B3
330
17
100
AcDbEntity
  8
曲线要素表
100
AcDbText
 10
84773.2954962186
 20
11777.643215887121
 30
0.0
 40
3.0
  1
11784.785
 72
1
 11
84773.2954962186
 21
11777.643215887121
 31
0.0
100
AcDbText
 73
2
  0
TEXT
  5
B4
330
17
100
AcDbEntity
  8
曲线要素表
100
AcDbText
 10
84817.2954962186
 20
11777.643215887121
 30
0.0
 40
3.0
  1
310.09596
 72
1
 11
84817.2954962186
 21
11777.643215887121
 31
0.0
100
AcDbText
 73
2
  0
TEXT
  5
B5
330
17
100
AcDbEntity
  8
曲线要素表
100
AcDbText
 10
84855.2954962186
 20
11777.643215887121
 30
0.0
 40
3.0
  1
1000.000
 72
1
 11
84855.2954962186
 21
11777.643215887121
 31
0.0
100
AcDbText
 73
2
  0
LINE
  5
B6
330
17
100
AcDbEntity
  8
曲线要素表
100
AcDbLine
 10
84649.2954962186
 20
11773.643215887121
 30
0.0
 11
84869.2954962186
 21
11773.643215887121
 31
0.0
  0
LINE
  5
B7
330
17
100
AcDbEntity
  8
曲线要素表
100
AcDbLine
 10
84649.2954962186
 20
11821.643215887121
 30
0.0
 11
84649.2954962186
 21
11773.643215887121
 31
0.0
  0
LINE
  5
B8
330
17
100
AcDbEntity
  8
曲线要素表
100
AcDbLine
 10
84671.2954962186
 20
11821.643215887121
 30
0.0
 11
84671.2954962186
 21
11773.643215887121
 31
0.0
  0
LINE
  5
B9
330
17
100
AcDbEntity
  8
曲线要素表
100
AcDbLine
 10
84713.2954962186
 20
11821.643215887121
 30
0.0
 11
84713.2954962186
 21
11773.643215887121
 31
0.0
  0
LINE
  5
BA
330
17
100
AcDbEntity
  8
曲线要素表
100
AcDbLine
 10
84753.2954962186
 20
11821.643215887121
 30
0.0
 11
84753.2954962186
 21
11773.643215887121
 31
0.0
  0
LINE
  5
BB
330
17
100
AcDbEntity
  8
曲线要素表
100
AcDbLine
 10
84793.2954962186
 20
11821.643215887121
 30
0.0
 11
84793.2954962186
 21
11773.643215887121
 31
0.0
  0
LINE
  5
BC
330
17
100
AcDbEntity
  8
曲线要素表
100
AcDbLine
 10
84841.2954962186
 20
11821.643215887121
 30
0.0
 11
84841.2954962186
 21
11773.643215887121
 31
0.0
  0
LINE
  5
BD
330
17
100
AcDbEntity
  8
曲线要素表
100
AcDbLine
 10
84869.2954962186
 20
11821.643215887121
 30
0.0
 11
84869.2954962186
 21
11773.643215887121
 31
0.0
  0
ENDSEC
  0
SECTION
  2
OBJECTS
  0
DICTIONARY
  5
A
330
0
100
AcDbDictionary
281
1
  3
ACAD_COLOR
350
B
  3
ACAD_GROUP
350
C
  3
ACAD_LAYOUT
350
D
  3
ACAD_MATERIAL
350
E
  3
ACAD_MLEADERSTYLE
350
F
  3
ACAD_MLINESTYLE
350
10
  3
ACAD_PLOTSETTINGS
350
11
  3
ACAD_PLOTSTYLENAME
350
12
  3
ACAD_SCALELIST
350
14
  3
ACAD_TABLESTYLE
350
15
  3
ACAD_VISUALSTYLE
350
16
  3
EZDXF_META
350
2D
  0
DICTIONARY
  5
B
330
A
100
AcDbDictionary
281
1
  0
DICTIONARY
  5
C
330
A
100
AcDbDictionary
281
1
  0
DICTIONARY
  5
D
330
A
100
AcDbDictionary
281
1
  3
Model
350
1A
  3
Layout1
350
1E
  0
DICTIONARY
  5
E
330
A
100
AcDbDictionary
281
1
  3
ByBlock
350
1F
  3
ByLayer
350
20
  3
Global
350
21
  0
DICTIONARY
  5
F
330
A
100
AcDbDictionary
281
1
  3
Standard
350
2C
  0
DICTIONARY
  5
10
330
A
100
AcDbDictionary
281
1
  3
Standard
350
22
  0
DICTIONARY
  5
11
330
A
100
AcDbDictionary
281
1
  0
ACDBDICTIONARYWDFLT
  5
12
330
A
100
AcDbDictionary
281
1
  3
Normal
350
13
100
AcDbDictionaryWithDefault
340
13
  0
ACDBPLACEHOLDER
  5
13
330
12
  0
DICTIONARY
  5
14
330
A
100
AcDbDictionary
281
1
  0
DICTIONARY
  5
15
330
A
100
AcDbDictionary
281
1
  0
DICTIONARY
  5
16
330
A
100
AcDbDictionary
281
1
  0
LAYOUT
  5
1A
330
D
100
AcDbPlotSettings
  1

  4
A3
  6

 40
7.5
 41
20.0
 42
7.5
 43
20.0
 44
420.0
 45
297.0
 46
0.0
 47
0.0
 48
0.0
 49
0.0
140
0.0
141
0.0
142
1.0
143
1.0
 70
1024
 72
1
 73
0
 74
5
  7

 75
16
 76
0
 77
2
 78
300
147
1.0
148
0.0
149
0.0
100
AcDbLayout
  1
Model
 70
1
 71
0
 10
0.0
 20
0.0
 11
420.0
 21
297.0
 12
0.0
 22
0.0
 32
0.0
 14
1e+20
 24
1e+20
 34
1e+20
 15
-1e+20
 25
-1e+20
 35
-1e+20
146
0.0
 13
0.0
 23
0.0
 33
0.0
 16
1.0
 26
0.0
 36
0.0
 17
0.0
 27
1.0
 37
0.0
 76
1
330
17
  0
LAYOUT
  5
1E
330
D
100
AcDbPlotSettings
  1

  4
A3
  6

 40
7.5
 41
20.0
 42
7.5
 43
20.0
 44
420.0
 45
297.0
 46
0.0
 47
0.0
 48
0.0
 49
0.0
140
0.0
141
0.0
142
1.0
143
1.0
 70
0
 72
1
 73
0
 74
5
  7

 75
16
 76
0
 77
2
 78
300
147
1.0
148
0.0
149
0.0
100
AcDbLayout
  1
Layout1
 70
1
 71
1
 10
0.0
 20
0.0
 11
420.0
 21
297.0
 12
0.0
 22
0.0
 32
0.0
 14
1e+20
 24
1e+20
 34
1e+20
 15
-1e+20
 25
-1e+20
 35
-1e+20
146
0.0
 13
0.0
 23
0.0
 33
0.0
 16
1.0
 26
0.0
 36
0.0
 17
0.0
 27
1.0
 37
0.0
 76
1
330
1B
  0
MATERIAL
  5
1F
102
{ACAD_REACTORS
330
E
102
}
330
E
100
AcDbMaterial
  1
ByBlock
  2

 70
0
 40
1.0
 71
1
 41
1.0
 91
-1023410177
 42
1.0
 72
1
  3

 73
1
 74
1
 75
1
 44
0.5
 73
0
 45
1.0
 46
1.0
 77
1
  4

 78
1
 79
1
170
1
 48
1.0
171
1
  6

172
1
173
1
174
1
140
1.0
141
1.0
175
1
  7

176
1
177
1
178
1
143
1.0
179
1
  8

270
1
271
1
272
1
145
1.0
146
1.0
273
1
  9

274
1
275
1
276
1
 42
1.0
 72
1
  3

 73
1
 74
1
 75
1
 94
63
  0
MATERIAL
  5
20
102
{ACAD_REACTORS
330
E
102
}
330
E
100
AcDbMaterial
  1
ByLayer
  2

 70
0
 40
1.0
 71
1
 41
1.0
 91
-1023410177
 42
1.0
 72
1
  3

 73
1
 74
1
 75
1
 44
0.5
 73
0
 45
1.0
 46
1.0
 77
1
  4

 78
1
 79
1
170
1
 48
1.0
171
1
  6

172
1
173
1
174
1
140
1.0
141
1.0
175
1
  7

176
1
177
1
178
1
143
1.0
179
1
  8

270
1
271
1
272
1
145
1.0
146
1.0
273
1
  9

274
1
275
1
276
1
 42
1.0
 72
1
  3

 73
1
 74
1
 75
1
 94
63
  0
MATERIAL
  5
21
102
{ACAD_REACTORS
330
E
102
}
330
E
100
AcDbMaterial
  1
Global
  2

 70
0
 40
1.0
 71
1
 41
1.0
 91
-1023410177
 42
1.0
 72
1
  3

 73
1
 74
1
 75
1
 44
0.5
 73
0
 45
1.0
 46
1.0
 77
1
  4

 78
1
 79
1
170
1
 48
1.0
171
1
  6

172
1
173
1
174
1
140
1.0
141
1.0
175
1
  7

176
1
177
1
178
1
143
1.0
179
1
  8

270
1
271
1
272
1
145
1.0
146
1.0
273
1
  9

274
1
275
1
276
1
 42
1.0
 72
1
  3

 73
1
 74
1
 75
1
 94
63
  0
MLINESTYLE
  5
22
102
{ACAD_REACTORS
330
10
102
}
330
10
100
AcDbMlineStyle
  2
Standard
 70
0
  3

 62
256
 51
90.0
 52
90.0
 71
2
 49
0.5
 62
256
  6
BYLAYER
 49
-0.5
 62
256
  6
BYLAYER
  0
MLEADERSTYLE
  5
2C
102
{ACAD_REACTORS
330
F
102
}
330
F
100
AcDbMLeaderStyle
179
2
170
2
171
1
172
0
 90
2
 40
0.0
 41
0.0
173
1
 91
-1056964608
 92
-2
290
1
 42
2.0
291
1
 43
8.0
  3
Standard
 44
4.0
300

342
29
174
1
175
1
176
0
178
1
 93
-1056964608
 45
4.0
292
0
297
0
 46
4.0
 94
-1056964608
 47
1.0
 49
1.0
140
1.0
294
1
141
0.0
177
0
142
1.0
295
0
296
0
143
3.75
271
0
272
9
273
9
  0
DICTIONARY
  5
2D
330
A
100
AcDbDictionary
280
1
281
1
  3
CREATED_BY_EZDXF
350
2E
  3
WRITTEN_BY_EZDXF
350
C0
  0
DICTIONARYVAR
  5
2E
330
2D
100
DictionaryVariables
280
0
  1
1.4.2 @ 2025-10-12T17:26:00.015168+00:00
  0
DICTIONARYVAR
  5
C0
330
2D
100
DictionaryVariables
280
0
  1
1.4.2 @ 2025-10-12T17:26:00.022188+00:00
  0
ENDSEC
  0
EOF
